<?xml version="1.0" encoding="UTF-8" standalone="no"?>
<svg
   xmlns:dc="http://purl.org/dc/elements/1.1/"
   xmlns:cc="http://creativecommons.org/ns#"
   xmlns:rdf="http://www.w3.org/1999/02/22-rdf-syntax-ns#"
   xmlns:svg="http://www.w3.org/2000/svg"
   xmlns="http://www.w3.org/2000/svg"
   xmlns:sodipodi="http://sodipodi.sourceforge.net/DTD/sodipodi-0.dtd"
   xmlns:inkscape="http://www.inkscape.org/namespaces/inkscape"
   version="1.1"
   viewBox="0 0 1033.1752 549.67151"
   stroke-miterlimit="10"
   id="svg2"
   inkscape:version="0.91 r13725"
   sodipodi:docname="hawq_resource_queue.svg"
   width="1033.1752"
   height="549.67151"
   style="fill:none;stroke:none;stroke-linecap:square;stroke-miterlimit:10">
  <metadata
     id="metadata121">
    <rdf:RDF>
      <cc:Work
         rdf:about="">
        <dc:format>image/svg+xml</dc:format>
        <dc:type
           rdf:resource="http://purl.org/dc/dcmitype/StillImage" />
        <dc:title></dc:title>
      </cc:Work>
    </rdf:RDF>
  </metadata>
  <defs
     id="defs119" />
  <sodipodi:namedview
     pagecolor="#ffffff"
     bordercolor="#666666"
     borderopacity="1"
     objecttolerance="10"
     gridtolerance="10"
     guidetolerance="10"
     inkscape:pageopacity="0"
     inkscape:pageshadow="2"
     inkscape:window-width="1033"
     inkscape:window-height="564"
     id="namedview117"
     showgrid="false"
     fit-margin-top="0"
     fit-margin-left="0"
     fit-margin-right="0"
     fit-margin-bottom="0"
     inkscape:zoom="0.47569444"
     inkscape:cx="446.16423"
     inkscape:cy="394.66056"
     inkscape:window-x="0"
     inkscape:window-y="0"
     inkscape:window-maximized="0"
     inkscape:current-layer="svg2" />
  <clipPath
     id="p.0">
    <path
       d="m 0,0 1152,0 0,864 L 0,864 0,0 Z"
       id="path5"
       inkscape:connector-curvature="0"
       style="clip-rule:nonzero" />
  </clipPath>
  <g
     clip-path="url(#p.0)"
     id="g7"
     transform="translate(-62.565693,-24.726276)">
    <path
       d="m 0,0 1152,0 0,864 -1152,0 z"
       id="path9"
       inkscape:connector-curvature="0"
       style="fill:#000000;fill-opacity:0;fill-rule:nonzero" />
    <path
       d="m 550.86255,58.181103 125.60632,0 0,76.566927 -125.60632,0 z"
       id="path11"
       inkscape:connector-curvature="0"
       style="fill:#cccccc;fill-rule:nonzero" />
    <path
       d="m 550.86255,58.181103 125.60632,0 0,76.566927 -125.60632,0 z"
       id="path13"
       inkscape:connector-curvature="0"
       style="fill-rule:nonzero;stroke:#000000;stroke-width:2;stroke-linecap:butt;stroke-linejoin:round;stroke-dasharray:8, 6" />
    <path
       d="m 587.5954,105.51206 0,-11.484375 1.28125,0 0,1.078125 q 0.45313,-0.640625 1.01563,-0.953125 0.57812,-0.3125 1.39062,-0.3125 1.0625,0 1.875,0.546875 0.8125,0.546875 1.21875,1.546875 0.42188,0.984375 0.42188,2.171875 0,1.28125 -0.46875,2.29688 -0.45313,1.01562 -1.32813,1.5625 -0.85937,0.54687 -1.82812,0.54687 -0.70313,0 -1.26563,-0.29687 -0.54687,-0.29688 -0.90625,-0.75 l 0,4.04687 -1.40625,0 z m 1.26563,-7.296875 q 0,1.609375 0.64062,2.375005 0.65625,0.76562 1.57813,0.76562 0.9375,0 1.60937,-0.79687 0.67188,-0.79688 0.67188,-2.45313 0,-1.59375 -0.65625,-2.375 -0.65625,-0.796875 -1.5625,-0.796875 -0.89063,0 -1.59375,0.84375 -0.6875,0.84375 -0.6875,2.4375 z m 7.36718,4.796875 1.375,0.20313 q 0.0781,0.64062 0.46875,0.92187 0.53125,0.39063 1.4375,0.39063 0.96875,0 1.5,-0.39063 0.53125,-0.39062 0.71875,-1.09375 0.10938,-0.42187 0.10938,-1.8125 -0.92188,1.09375 -2.29688,1.09375 -1.71875,0 -2.65625,-1.23437 -0.9375,-1.23438 -0.9375,-2.968755 0,-1.1875 0.42188,-2.1875 0.4375,-1 1.25,-1.546875 0.82812,-0.546875 1.92187,-0.546875 1.46875,0 2.42188,1.1875 l 0,-1 1.29687,0 0,7.171875 q 0,1.9375 -0.39062,2.75 -0.39063,0.8125 -1.25,1.28125 -0.85938,0.46875 -2.10938,0.46875 -1.48437,0 -2.40625,-0.67187 -0.90625,-0.67188 -0.875,-2.01563 z m 1.17188,-4.984375 q 0,1.625 0.64062,2.375005 0.65625,0.75 1.625,0.75 0.96875,0 1.625,-0.73438 0.65625,-0.75 0.65625,-2.34375 0,-1.53125 -0.67187,-2.296875 -0.67188,-0.78125 -1.625,-0.78125 -0.9375,0 -1.59375,0.765625 -0.65625,0.765625 -0.65625,2.265625 z m 6.67969,7.484375 0,-1.01562 9.32812,0 0,1.01562 -9.32812,0 z m 10.19531,-3.1875 0,-8.296875 1.26562,0 0,1.25 q 0.48438,-0.875 0.89063,-1.15625 0.40625,-0.28125 0.90625,-0.28125 0.70312,0 1.4375,0.453125 l -0.48438,1.296875 q -0.51562,-0.296875 -1.03125,-0.296875 -0.45312,0 -0.82812,0.28125 -0.35938,0.265625 -0.51563,0.765625 -0.23437,0.75 -0.23437,1.640625 l 0,4.34375 -1.40625,0 z m 4.8125,-4.15625 q 0,-2.296875 1.28125,-3.40625 1.07812,-0.921875 2.60937,-0.921875 1.71875,0 2.79688,1.125 1.09375,1.109375 1.09375,3.09375 0,1.59375 -0.48438,2.515625 -0.48437,0.92188 -1.40625,1.4375 -0.90625,0.5 -2,0.5 -1.73437,0 -2.8125,-1.10937 -1.07812,-1.125 -1.07812,-3.23438 z m 1.45312,0 q 0,1.59375 0.6875,2.39063 0.70313,0.79687 1.75,0.79687 1.04688,0 1.73438,-0.79687 0.70312,-0.79688 0.70312,-2.437505 0,-1.53125 -0.70312,-2.328125 -0.6875,-0.796875 -1.73438,-0.796875 -1.04687,0 -1.75,0.796875 -0.6875,0.78125 -0.6875,2.375 z m 7.44532,0 q 0,-2.296875 1.28125,-3.40625 1.07812,-0.921875 2.60937,-0.921875 1.71875,0 2.79688,1.125 1.09375,1.109375 1.09375,3.09375 0,1.59375 -0.48438,2.515625 -0.48437,0.92188 -1.40625,1.4375 -0.90625,0.5 -2,0.5 -1.73437,0 -2.8125,-1.10937 -1.07812,-1.125 -1.07812,-3.23438 z m 1.45312,0 q 0,1.59375 0.6875,2.39063 0.70313,0.79687 1.75,0.79687 1.04688,0 1.73438,-0.79687 0.70312,-0.79688 0.70312,-2.437505 0,-1.53125 -0.70312,-2.328125 -0.6875,-0.796875 -1.73438,-0.796875 -1.04687,0 -1.75,0.796875 -0.6875,0.78125 -0.6875,2.375 z m 11.03906,2.89063 0.20313,1.25 q -0.59375,0.125 -1.0625,0.125 -0.76563,0 -1.1875,-0.23438 -0.42188,-0.25 -0.59375,-0.64062 -0.17188,-0.40625 -0.17188,-1.67188 l 0,-4.765625 -1.03125,0 0,-1.09375 1.03125,0 0,-2.0625 1.40625,-0.84375 0,2.90625 1.40625,0 0,1.09375 -1.40625,0 0,4.84375 q 0,0.609375 0.0625,0.781255 0.0781,0.17187 0.25,0.28125 0.17188,0.0937 0.48438,0.0937 0.23437,0 0.60937,-0.0625 z"
       id="path15"
       inkscape:connector-curvature="0"
       style="fill:#000000;fill-rule:nonzero" />
    <path
       d="m 265.409,249.52692 125.60629,0 0,76.56692 -125.60629,0 z"
       id="path17"
       inkscape:connector-curvature="0"
       style="fill:#ffffff;fill-rule:nonzero" />
    <path
       d="m 265.409,249.52692 125.60629,0 0,76.56692 -125.60629,0 z"
       id="path19"
       inkscape:connector-curvature="0"
       style="fill-rule:nonzero;stroke:#000000;stroke-width:2;stroke-linecap:butt;stroke-linejoin:round;stroke-dasharray:8, 6" />
    <path
       d="m 289.7317,293.67038 0,-1.04687 q -0.78125,1.23437 -2.3125,1.23437 -1,0 -1.82813,-0.54687 -0.82812,-0.54688 -1.29687,-1.53125 -0.45313,-0.98438 -0.45313,-2.25 0,-1.25 0.40625,-2.25 0.42188,-1.01563 1.25,-1.54688 0.82813,-0.54687 1.85938,-0.54687 0.75,0 1.32812,0.3125 0.59375,0.3125 0.95313,0.82812 l 0,-4.10937 1.40625,0 0,11.45312 -1.3125,0 z m -4.4375,-4.14062 q 0,1.59375 0.67187,2.39062 0.67188,0.78125 1.57813,0.78125 0.92187,0 1.5625,-0.75 0.65625,-0.76562 0.65625,-2.3125 0,-1.70312 -0.65625,-2.5 -0.65625,-0.79687 -1.625,-0.79687 -0.9375,0 -1.5625,0.76562 -0.625,0.76563 -0.625,2.42188 z m 13.63281,1.46875 1.45313,0.17187 q -0.34375,1.28125 -1.28125,1.98438 -0.92188,0.70312 -2.35938,0.70312 -1.82812,0 -2.89062,-1.125 -1.0625,-1.125 -1.0625,-3.14062 0,-2.09375 1.07812,-3.25 1.07813,-1.15625 2.79688,-1.15625 1.65625,0 2.70312,1.14062 1.0625,1.125 1.0625,3.17188 0,0.125 0,0.375 l -6.1875,0 q 0.0781,1.375 0.76563,2.10937 0.70312,0.71875 1.73437,0.71875 0.78125,0 1.32813,-0.40625 0.54687,-0.40625 0.85937,-1.29687 z m -4.60937,-2.28125 4.625,0 q -0.0937,-1.04688 -0.53125,-1.5625 -0.67188,-0.8125 -1.73438,-0.8125 -0.96875,0 -1.64062,0.65625 -0.65625,0.64062 -0.71875,1.71875 z m 7.83593,8.14062 0,-11.48437 1.28125,0 0,1.07812 q 0.45313,-0.64062 1.01563,-0.95312 0.57812,-0.3125 1.39062,-0.3125 1.0625,0 1.875,0.54687 0.8125,0.54688 1.21875,1.54688 0.42188,0.98437 0.42188,2.17187 0,1.28125 -0.46875,2.29688 -0.45313,1.01562 -1.32813,1.5625 -0.85937,0.54687 -1.82812,0.54687 -0.70313,0 -1.26563,-0.29687 -0.54687,-0.29688 -0.90625,-0.75 l 0,4.04687 -1.40625,0 z m 1.26563,-7.29687 q 0,1.60937 0.64062,2.375 0.65625,0.76562 1.57813,0.76562 0.9375,0 1.60937,-0.79687 0.67188,-0.79688 0.67188,-2.45313 0,-1.59375 -0.65625,-2.375 -0.65625,-0.79687 -1.5625,-0.79687 -0.89063,0 -1.59375,0.84375 -0.6875,0.84375 -0.6875,2.4375 z m 13.03906,3.07812 q -0.78125,0.67188 -1.5,0.95313 -0.71875,0.26562 -1.54687,0.26562 -1.375,0 -2.10938,-0.67187 -0.73437,-0.67188 -0.73437,-1.70313 0,-0.60937 0.28125,-1.10937 0.28125,-0.51563 0.71875,-0.8125 0.45312,-0.3125 1.01562,-0.46875 0.42188,-0.10938 1.25,-0.20313 1.70313,-0.20312 2.51563,-0.48437 0,-0.29688 0,-0.375 0,-0.85938 -0.39063,-1.20313 -0.54687,-0.48437 -1.60937,-0.48437 -0.98438,0 -1.46875,0.35937 -0.46875,0.34375 -0.6875,1.21875 l -1.375,-0.1875 q 0.1875,-0.875 0.60937,-1.42187 0.4375,-0.54688 1.25,-0.82813 0.8125,-0.29687 1.875,-0.29687 1.0625,0 1.71875,0.25 0.67188,0.25 0.98438,0.625 0.3125,0.375 0.4375,0.95312 0.0781,0.35938 0.0781,1.29688 l 0,1.875 q 0,1.96875 0.0781,2.48437 0.0937,0.51563 0.35937,1 l -1.46875,0 q -0.21875,-0.4375 -0.28125,-1.03125 z m -0.10937,-3.14062 q -0.76563,0.3125 -2.29688,0.53125 -0.875,0.125 -1.23437,0.28125 -0.35938,0.15625 -0.5625,0.46875 -0.1875,0.29687 -0.1875,0.65625 0,0.5625 0.42187,0.9375 0.4375,0.375 1.25,0.375 0.8125,0 1.4375,-0.34375 0.64063,-0.35938 0.9375,-0.98438 0.23438,-0.46875 0.23438,-1.40625 l 0,-0.51562 z m 3.58593,4.17187 0,-8.29687 1.26563,0 0,1.25 q 0.48437,-0.875 0.89062,-1.15625 0.40625,-0.28125 0.90625,-0.28125 0.70313,0 1.4375,0.45312 l -0.48437,1.29688 q -0.51563,-0.29688 -1.03125,-0.29688 -0.45313,0 -0.82813,0.28125 -0.35937,0.26563 -0.51562,0.76563 -0.23438,0.75 -0.23438,1.64062 l 0,4.34375 -1.40625,0 z m 8.40625,-1.26562 0.20313,1.25 q -0.59375,0.125 -1.0625,0.125 -0.76563,0 -1.1875,-0.23438 -0.42188,-0.25 -0.59375,-0.64062 -0.17188,-0.40625 -0.17188,-1.67188 l 0,-4.76562 -1.03125,0 0,-1.09375 1.03125,0 0,-2.0625 1.40625,-0.84375 0,2.90625 1.40625,0 0,1.09375 -1.40625,0 0,4.84375 q 0,0.60937 0.0625,0.78125 0.0781,0.17187 0.25,0.28125 0.17188,0.0937 0.48438,0.0937 0.23437,0 0.60937,-0.0625 z m 1.38282,1.26562 0,-8.29687 1.25,0 0,1.15625 q 0.39062,-0.60938 1.03125,-0.96875 0.65625,-0.375 1.48437,-0.375 0.92188,0 1.51563,0.39062 0.59375,0.375 0.82812,1.0625 0.98438,-1.45312 2.5625,-1.45312 1.23438,0 1.89063,0.6875 0.67187,0.67187 0.67187,2.09375 l 0,5.70312 -1.39062,0 0,-5.23437 q 0,-0.84375 -0.14063,-1.20313 -0.14062,-0.375 -0.5,-0.59375 -0.35937,-0.23437 -0.84375,-0.23437 -0.875,0 -1.45312,0.57812 -0.57813,0.57813 -0.57813,1.85938 l 0,4.82812 -1.40625,0 0,-5.39062 q 0,-0.9375 -0.34375,-1.40625 -0.34375,-0.46875 -1.125,-0.46875 -0.59375,0 -1.09375,0.3125 -0.5,0.3125 -0.73437,0.92187 -0.21875,0.59375 -0.21875,1.71875 l 0,4.3125 -1.40625,0 z m 19,-2.67187 1.45312,0.17187 q -0.34375,1.28125 -1.28125,1.98438 -0.92187,0.70312 -2.35937,0.70312 -1.82813,0 -2.89063,-1.125 -1.0625,-1.125 -1.0625,-3.14062 0,-2.09375 1.07813,-3.25 1.07812,-1.15625 2.79687,-1.15625 1.65625,0 2.70313,1.14062 1.0625,1.125 1.0625,3.17188 0,0.125 0,0.375 l -6.1875,0 q 0.0781,1.375 0.76562,2.10937 0.70313,0.71875 1.73438,0.71875 0.78125,0 1.32812,-0.40625 0.54688,-0.40625 0.85938,-1.29687 z m -4.60938,-2.28125 4.625,0 q -0.0937,-1.04688 -0.53125,-1.5625 -0.67187,-0.8125 -1.73437,-0.8125 -0.96875,0 -1.64063,0.65625 -0.65625,0.64062 -0.71875,1.71875 z m 7.83594,4.95312 0,-8.29687 1.26562,0 0,1.17187 q 0.90625,-1.35937 2.64063,-1.35937 0.75,0 1.375,0.26562 0.625,0.26563 0.9375,0.70313 0.3125,0.4375 0.4375,1.04687 0.0781,0.39063 0.0781,1.35938 l 0,5.10937 -1.40625,0 0,-5.04687 q 0,-0.85938 -0.17187,-1.28125 -0.15625,-0.4375 -0.57813,-0.6875 -0.40625,-0.25 -0.96875,-0.25 -0.90625,0 -1.5625,0.57812 -0.64062,0.5625 -0.64062,2.15625 l 0,4.53125 -1.40625,0 z m 11.96094,-1.26562 0.20312,1.25 q -0.59375,0.125 -1.0625,0.125 -0.76562,0 -1.1875,-0.23438 -0.42187,-0.25 -0.59375,-0.64062 -0.17187,-0.40625 -0.17187,-1.67188 l 0,-4.76562 -1.03125,0 0,-1.09375 1.03125,0 0,-2.0625 1.40625,-0.84375 0,2.90625 1.40625,0 0,1.09375 -1.40625,0 0,4.84375 q 0,0.60937 0.0625,0.78125 0.0781,0.17187 0.25,0.28125 0.17187,0.0937 0.48437,0.0937 0.23438,0 0.60938,-0.0625 z m 6.28906,1.26562 -1.40625,0 0,-8.96875 q -0.51563,0.48438 -1.34375,0.96875 -0.8125,0.48438 -1.46875,0.73438 l 0,-1.35938 q 1.17187,-0.5625 2.04687,-1.34375 0.89063,-0.79687 1.26563,-1.53125 l 0.90625,0 0,11.5 z"
       id="path21"
       inkscape:connector-curvature="0"
       style="fill:#000000;fill-rule:nonzero" />
    <path
       d="m 510.44476,249.52692 125.60626,0 0,76.56692 -125.60626,0 z"
       id="path23"
       inkscape:connector-curvature="0"
       style="fill:#ffffff;fill-rule:nonzero" />
    <path
       d="m 510.44476,249.52692 125.60626,0 0,76.56692 -125.60626,0 z"
       id="path25"
       inkscape:connector-curvature="0"
       style="fill-rule:nonzero;stroke:#000000;stroke-width:2;stroke-linecap:butt;stroke-linejoin:round;stroke-dasharray:8, 6" />
    <path
       d="m 534.76746,293.67038 0,-1.04687 q -0.78125,1.23437 -2.3125,1.23437 -1,0 -1.82812,-0.54687 -0.82813,-0.54688 -1.29688,-1.53125 -0.45312,-0.98438 -0.45312,-2.25 0,-1.25 0.40625,-2.25 0.42187,-1.01563 1.25,-1.54688 0.82812,-0.54687 1.85937,-0.54687 0.75,0 1.32813,0.3125 0.59375,0.3125 0.95312,0.82812 l 0,-4.10937 1.40625,0 0,11.45312 -1.3125,0 z m -4.4375,-4.14062 q 0,1.59375 0.67188,2.39062 0.67187,0.78125 1.57812,0.78125 0.92188,0 1.5625,-0.75 0.65625,-0.76562 0.65625,-2.3125 0,-1.70312 -0.65625,-2.5 -0.65625,-0.79687 -1.625,-0.79687 -0.9375,0 -1.5625,0.76562 -0.625,0.76563 -0.625,2.42188 z m 13.63281,1.46875 1.45313,0.17187 q -0.34375,1.28125 -1.28125,1.98438 -0.92188,0.70312 -2.35938,0.70312 -1.82812,0 -2.89062,-1.125 -1.0625,-1.125 -1.0625,-3.14062 0,-2.09375 1.07812,-3.25 1.07813,-1.15625 2.79688,-1.15625 1.65625,0 2.70312,1.14062 1.0625,1.125 1.0625,3.17188 0,0.125 0,0.375 l -6.1875,0 q 0.0781,1.375 0.76563,2.10937 0.70312,0.71875 1.73437,0.71875 0.78125,0 1.32813,-0.40625 0.54687,-0.40625 0.85937,-1.29687 z m -4.60937,-2.28125 4.625,0 q -0.0937,-1.04688 -0.53125,-1.5625 -0.67188,-0.8125 -1.73438,-0.8125 -0.96875,0 -1.64062,0.65625 -0.65625,0.64062 -0.71875,1.71875 z m 7.83594,8.14062 0,-11.48437 1.28125,0 0,1.07812 q 0.45312,-0.64062 1.01562,-0.95312 0.57813,-0.3125 1.39063,-0.3125 1.0625,0 1.875,0.54687 0.8125,0.54688 1.21875,1.54688 0.42187,0.98437 0.42187,2.17187 0,1.28125 -0.46875,2.29688 -0.45312,1.01562 -1.32812,1.5625 -0.85938,0.54687 -1.82813,0.54687 -0.70312,0 -1.26562,-0.29687 -0.54688,-0.29688 -0.90625,-0.75 l 0,4.04687 -1.40625,0 z m 1.26562,-7.29687 q 0,1.60937 0.64063,2.375 0.65625,0.76562 1.57812,0.76562 0.9375,0 1.60938,-0.79687 0.67187,-0.79688 0.67187,-2.45313 0,-1.59375 -0.65625,-2.375 -0.65625,-0.79687 -1.5625,-0.79687 -0.89062,0 -1.59375,0.84375 -0.6875,0.84375 -0.6875,2.4375 z m 13.03906,3.07812 q -0.78125,0.67188 -1.5,0.95313 -0.71875,0.26562 -1.54687,0.26562 -1.375,0 -2.10938,-0.67187 -0.73437,-0.67188 -0.73437,-1.70313 0,-0.60937 0.28125,-1.10937 0.28125,-0.51563 0.71875,-0.8125 0.45312,-0.3125 1.01562,-0.46875 0.42188,-0.10938 1.25,-0.20313 1.70313,-0.20312 2.51563,-0.48437 0,-0.29688 0,-0.375 0,-0.85938 -0.39063,-1.20313 -0.54687,-0.48437 -1.60937,-0.48437 -0.98438,0 -1.46875,0.35937 -0.46875,0.34375 -0.6875,1.21875 l -1.375,-0.1875 q 0.1875,-0.875 0.60937,-1.42187 0.4375,-0.54688 1.25,-0.82813 0.8125,-0.29687 1.875,-0.29687 1.0625,0 1.71875,0.25 0.67188,0.25 0.98438,0.625 0.3125,0.375 0.4375,0.95312 0.0781,0.35938 0.0781,1.29688 l 0,1.875 q 0,1.96875 0.0781,2.48437 0.0937,0.51563 0.35937,1 l -1.46875,0 q -0.21875,-0.4375 -0.28125,-1.03125 z m -0.10937,-3.14062 q -0.76563,0.3125 -2.29688,0.53125 -0.875,0.125 -1.23437,0.28125 -0.35938,0.15625 -0.5625,0.46875 -0.1875,0.29687 -0.1875,0.65625 0,0.5625 0.42187,0.9375 0.4375,0.375 1.25,0.375 0.8125,0 1.4375,-0.34375 0.64063,-0.35938 0.9375,-0.98438 0.23438,-0.46875 0.23438,-1.40625 l 0,-0.51562 z m 3.58594,4.17187 0,-8.29687 1.26562,0 0,1.25 q 0.48438,-0.875 0.89063,-1.15625 0.40625,-0.28125 0.90625,-0.28125 0.70312,0 1.4375,0.45312 l -0.48438,1.29688 q -0.51562,-0.29688 -1.03125,-0.29688 -0.45312,0 -0.82812,0.28125 -0.35938,0.26563 -0.51563,0.76563 -0.23437,0.75 -0.23437,1.64062 l 0,4.34375 -1.40625,0 z m 8.40625,-1.26562 0.20312,1.25 q -0.59375,0.125 -1.0625,0.125 -0.76562,0 -1.1875,-0.23438 -0.42187,-0.25 -0.59375,-0.64062 -0.17187,-0.40625 -0.17187,-1.67188 l 0,-4.76562 -1.03125,0 0,-1.09375 1.03125,0 0,-2.0625 1.40625,-0.84375 0,2.90625 1.40625,0 0,1.09375 -1.40625,0 0,4.84375 q 0,0.60937 0.0625,0.78125 0.0781,0.17187 0.25,0.28125 0.17187,0.0937 0.48437,0.0937 0.23438,0 0.60938,-0.0625 z m 1.38281,1.26562 0,-8.29687 1.25,0 0,1.15625 q 0.39062,-0.60938 1.03125,-0.96875 0.65625,-0.375 1.48437,-0.375 0.92188,0 1.51563,0.39062 0.59375,0.375 0.82812,1.0625 0.98438,-1.45312 2.5625,-1.45312 1.23438,0 1.89063,0.6875 0.67187,0.67187 0.67187,2.09375 l 0,5.70312 -1.39062,0 0,-5.23437 q 0,-0.84375 -0.14063,-1.20313 -0.14062,-0.375 -0.5,-0.59375 -0.35937,-0.23437 -0.84375,-0.23437 -0.875,0 -1.45312,0.57812 -0.57813,0.57813 -0.57813,1.85938 l 0,4.82812 -1.40625,0 0,-5.39062 q 0,-0.9375 -0.34375,-1.40625 -0.34375,-0.46875 -1.125,-0.46875 -0.59375,0 -1.09375,0.3125 -0.5,0.3125 -0.73437,0.92187 -0.21875,0.59375 -0.21875,1.71875 l 0,4.3125 -1.40625,0 z m 19,-2.67187 1.45312,0.17187 q -0.34375,1.28125 -1.28125,1.98438 -0.92187,0.70312 -2.35937,0.70312 -1.82813,0 -2.89063,-1.125 -1.0625,-1.125 -1.0625,-3.14062 0,-2.09375 1.07813,-3.25 1.07812,-1.15625 2.79687,-1.15625 1.65625,0 2.70313,1.14062 1.0625,1.125 1.0625,3.17188 0,0.125 0,0.375 l -6.1875,0 q 0.0781,1.375 0.76562,2.10937 0.70313,0.71875 1.73438,0.71875 0.78125,0 1.32812,-0.40625 0.54688,-0.40625 0.85938,-1.29687 z m -4.60938,-2.28125 4.625,0 q -0.0937,-1.04688 -0.53125,-1.5625 -0.67187,-0.8125 -1.73437,-0.8125 -0.96875,0 -1.64063,0.65625 -0.65625,0.64062 -0.71875,1.71875 z m 7.83594,4.95312 0,-8.29687 1.26563,0 0,1.17187 q 0.90625,-1.35937 2.64062,-1.35937 0.75,0 1.375,0.26562 0.625,0.26563 0.9375,0.70313 0.3125,0.4375 0.4375,1.04687 0.0781,0.39063 0.0781,1.35938 l 0,5.10937 -1.40625,0 0,-5.04687 q 0,-0.85938 -0.17188,-1.28125 -0.15625,-0.4375 -0.57812,-0.6875 -0.40625,-0.25 -0.96875,-0.25 -0.90625,0 -1.5625,0.57812 -0.64063,0.5625 -0.64063,2.15625 l 0,4.53125 -1.40625,0 z m 11.96094,-1.26562 0.20312,1.25 q -0.59375,0.125 -1.0625,0.125 -0.76562,0 -1.1875,-0.23438 -0.42187,-0.25 -0.59375,-0.64062 -0.17187,-0.40625 -0.17187,-1.67188 l 0,-4.76562 -1.03125,0 0,-1.09375 1.03125,0 0,-2.0625 1.40625,-0.84375 0,2.90625 1.40625,0 0,1.09375 -1.40625,0 0,4.84375 q 0,0.60937 0.0625,0.78125 0.0781,0.17187 0.25,0.28125 0.17187,0.0937 0.48437,0.0937 0.23438,0 0.60938,-0.0625 z m 8.38281,-0.0937 0,1.35937 -7.57812,0 q -0.0156,-0.51562 0.17187,-0.98437 0.28125,-0.76563 0.92188,-1.51563 0.64062,-0.75 1.84375,-1.73437 1.85937,-1.53125 2.51562,-2.42188 0.65625,-0.90625 0.65625,-1.70312 0,-0.82813 -0.59375,-1.40625 -0.59375,-0.57813 -1.5625,-0.57813 -1.01562,0 -1.625,0.60938 -0.60937,0.60937 -0.60937,1.6875 l -1.45313,-0.14063 q 0.15625,-1.625 1.125,-2.46875 0.96875,-0.84375 2.59375,-0.84375 1.65625,0 2.60938,0.92188 0.96875,0.90625 0.96875,2.25 0,0.6875 -0.28125,1.35937 -0.28125,0.65625 -0.9375,1.39063 -0.65625,0.73437 -2.17188,2.01562 -1.26562,1.0625 -1.625,1.45313 -0.35937,0.375 -0.59375,0.75 l 5.625,0 z"
       id="path27"
       inkscape:connector-curvature="0"
       style="fill:#000000;fill-rule:nonzero" />
    <path
       d="m 189,433.2189 125.60629,0 0,76.56696 -125.60629,0 z"
       id="path29"
       inkscape:connector-curvature="0"
       style="fill:#ffffff;fill-rule:nonzero" />
    <path
       d="m 189,433.2189 125.60629,0 0,76.56696 -125.60629,0 z"
       id="path31"
       inkscape:connector-curvature="0"
       style="fill-rule:nonzero;stroke:#000000;stroke-width:2;stroke-linecap:butt;stroke-linejoin:round" />
    <path
       d="m 232.0258,476.33112 q -0.78125,0.67187 -1.5,0.95312 -0.71875,0.26563 -1.54688,0.26563 -1.375,0 -2.10937,-0.67188 -0.73438,-0.67187 -0.73438,-1.70312 0,-0.60938 0.28125,-1.10938 0.28125,-0.51562 0.71875,-0.8125 0.45313,-0.3125 1.01563,-0.46875 0.42187,-0.10937 1.25,-0.20312 1.70312,-0.20313 2.51562,-0.48438 0,-0.29687 0,-0.375 0,-0.85937 -0.39062,-1.20312 -0.54688,-0.48438 -1.60938,-0.48438 -0.98437,0 -1.46875,0.35938 -0.46875,0.34375 -0.6875,1.21875 l -1.375,-0.1875 q 0.1875,-0.875 0.60938,-1.42188 0.4375,-0.54687 1.25,-0.82812 0.8125,-0.29688 1.875,-0.29688 1.0625,0 1.71875,0.25 0.67187,0.25 0.98437,0.625 0.3125,0.375 0.4375,0.95313 0.0781,0.35937 0.0781,1.29687 l 0,1.875 q 0,1.96875 0.0781,2.48438 0.0937,0.51562 0.35938,1 l -1.46875,0 q -0.21875,-0.4375 -0.28125,-1.03125 z m -0.10938,-3.14063 q -0.76562,0.3125 -2.29687,0.53125 -0.875,0.125 -1.23438,0.28125 -0.35937,0.15625 -0.5625,0.46875 -0.1875,0.29688 -0.1875,0.65625 0,0.5625 0.42188,0.9375 0.4375,0.375 1.25,0.375 0.8125,0 1.4375,-0.34375 0.64062,-0.35937 0.9375,-0.98437 0.23437,-0.46875 0.23437,-1.40625 l 0,-0.51563 z m 8.97657,4.17188 0,-1.04688 q -0.78125,1.23438 -2.3125,1.23438 -1,0 -1.82813,-0.54688 -0.82812,-0.54687 -1.29687,-1.53125 -0.45313,-0.98437 -0.45313,-2.25 0,-1.25 0.40625,-2.25 0.42188,-1.01562 1.25,-1.54687 0.82813,-0.54688 1.85938,-0.54688 0.75,0 1.32812,0.3125 0.59375,0.3125 0.95313,0.82813 l 0,-4.10938 1.40625,0 0,11.45313 -1.3125,0 z m -4.4375,-4.14063 q 0,1.59375 0.67187,2.39063 0.67188,0.78125 1.57813,0.78125 0.92187,0 1.5625,-0.75 0.65625,-0.76563 0.65625,-2.3125 0,-1.70313 -0.65625,-2.5 -0.65625,-0.79688 -1.625,-0.79688 -0.9375,0 -1.5625,0.76563 -0.625,0.76562 -0.625,2.42187 z m 7.96093,4.14063 0,-11.45313 1.40625,0 0,4.10938 q 0.98438,-1.14063 2.48438,-1.14063 0.92187,0 1.59375,0.35938 0.6875,0.35937 0.96875,1 0.29687,0.64062 0.29687,1.85937 l 0,5.26563 -1.40625,0 0,-5.26563 q 0,-1.04687 -0.45312,-1.53125 -0.45313,-0.48437 -1.29688,-0.48437 -0.625,0 -1.17187,0.32812 -0.54688,0.32813 -0.78125,0.89063 -0.23438,0.54687 -0.23438,1.51562 l 0,4.54688 -1.40625,0 z m 8.36719,-4.15625 q 0,-2.29688 1.28125,-3.40625 1.07813,-0.92188 2.60939,-0.92188 1.71875,0 2.79688,1.125 1.09375,1.10938 1.09375,3.09375 0,1.59375 -0.48438,2.51563 -0.48437,0.92187 -1.40625,1.4375 -0.90625,0.5 -2,0.5 -1.73439,0 -2.81251,-1.10938 -1.07813,-1.125 -1.07813,-3.23437 z m 1.45313,0 q 0,1.59375 0.6875,2.39062 0.70312,0.79688 1.75001,0.79688 1.04688,0 1.73438,-0.79688 0.70312,-0.79687 0.70312,-2.4375 0,-1.53125 -0.70312,-2.32812 -0.6875,-0.79688 -1.73438,-0.79688 -1.04689,0 -1.75001,0.79688 -0.6875,0.78125 -0.6875,2.375 z m 13.38283,1.10937 1.39062,0.1875 q -0.23437,1.42188 -1.17187,2.23438 -0.92188,0.8125 -2.28125,0.8125 -1.70313,0 -2.75,-1.10938 -1.03125,-1.125 -1.03125,-3.20312 0,-1.34375 0.4375,-2.34375 0.45312,-1.01563 1.35937,-1.51563 0.92188,-0.5 1.98438,-0.5 1.35937,0 2.21875,0.6875 0.85937,0.67188 1.09375,1.9375 l -1.35938,0.20313 q -0.20312,-0.82813 -0.70312,-1.25 -0.48438,-0.42188 -1.1875,-0.42188 -1.0625,0 -1.73438,0.76563 -0.65625,0.75 -0.65625,2.40625 0,1.67187 0.64063,2.4375 0.64062,0.75 1.67187,0.75 0.82813,0 1.375,-0.5 0.5625,-0.51563 0.70313,-1.57813 z m 7.5,3.04688 -1.40625,0 0,-8.96875 q -0.51563,0.48437 -1.34375,0.96875 -0.8125,0.48437 -1.46875,0.73437 l 0,-1.35937 q 1.17187,-0.5625 2.04687,-1.34375 0.89063,-0.79688 1.26563,-1.53125 l 0.90625,0 0,11.5 z"
       id="path33"
       inkscape:connector-curvature="0"
       style="fill:#000000;fill-rule:nonzero" />
    <path
       d="m 341.38232,433.2189 125.60629,0 0,76.56696 -125.60629,0 z"
       id="path35"
       inkscape:connector-curvature="0"
       style="fill:#ffffff;fill-rule:nonzero" />
    <path
       d="m 341.38232,433.2189 125.60629,0 0,76.56696 -125.60629,0 z"
       id="path37"
       inkscape:connector-curvature="0"
       style="fill-rule:nonzero;stroke:#000000;stroke-width:2;stroke-linecap:butt;stroke-linejoin:round" />
    <path
       d="m 370.1503,477.36237 0,-1.04688 q -0.78125,1.23438 -2.3125,1.23438 -1,0 -1.82812,-0.54688 -0.82813,-0.54687 -1.29688,-1.53125 -0.45312,-0.98437 -0.45312,-2.25 0,-1.25 0.40625,-2.25 0.42187,-1.01562 1.25,-1.54687 0.82812,-0.54688 1.85937,-0.54688 0.75,0 1.32813,0.3125 0.59375,0.3125 0.95312,0.82813 l 0,-4.10938 1.40625,0 0,11.45313 -1.3125,0 z m -4.4375,-4.14063 q 0,1.59375 0.67188,2.39063 0.67187,0.78125 1.57812,0.78125 0.92188,0 1.5625,-0.75 0.65625,-0.76563 0.65625,-2.3125 0,-1.70313 -0.65625,-2.5 -0.65625,-0.79688 -1.625,-0.79688 -0.9375,0 -1.5625,0.76563 -0.625,0.76562 -0.625,2.42187 z m 13.36719,3.10938 q -0.78125,0.67187 -1.5,0.95312 -0.71875,0.26563 -1.54688,0.26563 -1.375,0 -2.10937,-0.67188 -0.73438,-0.67187 -0.73438,-1.70312 0,-0.60938 0.28125,-1.10938 0.28125,-0.51562 0.71875,-0.8125 0.45313,-0.3125 1.01563,-0.46875 0.42187,-0.10937 1.25,-0.20312 1.70312,-0.20313 2.51562,-0.48438 0,-0.29687 0,-0.375 0,-0.85937 -0.39062,-1.20312 -0.54688,-0.48438 -1.60938,-0.48438 -0.98437,0 -1.46875,0.35938 -0.46875,0.34375 -0.6875,1.21875 l -1.375,-0.1875 q 0.1875,-0.875 0.60938,-1.42188 0.4375,-0.54687 1.25,-0.82812 0.8125,-0.29688 1.875,-0.29688 1.0625,0 1.71875,0.25 0.67187,0.25 0.98437,0.625 0.3125,0.375 0.4375,0.95313 0.0781,0.35937 0.0781,1.29687 l 0,1.875 q 0,1.96875 0.0781,2.48438 0.0937,0.51562 0.35938,1 l -1.46875,0 q -0.21875,-0.4375 -0.28125,-1.03125 z m -0.10938,-3.14063 q -0.76562,0.3125 -2.29687,0.53125 -0.875,0.125 -1.23438,0.28125 -0.35937,0.15625 -0.5625,0.46875 -0.1875,0.29688 -0.1875,0.65625 0,0.5625 0.42188,0.9375 0.4375,0.375 1.25,0.375 0.8125,0 1.4375,-0.34375 0.64062,-0.35937 0.9375,-0.98437 0.23437,-0.46875 0.23437,-1.40625 l 0,-0.51563 z m 3.60157,-5.67187 0,-1.60938 1.40625,0 0,1.60938 -1.40625,0 z m 0,9.84375 0,-8.29688 1.40625,0 0,8.29688 -1.40625,0 z m 3.52343,0 0,-11.45313 1.40625,0 0,11.45313 -1.40625,0 z m 3.52344,3.20312 -0.15625,-1.32812 q 0.45313,0.125 0.79688,0.125 0.46875,0 0.75,-0.15625 0.28125,-0.15625 0.46875,-0.4375 0.125,-0.20313 0.42187,-1.04688 0.0469,-0.10937 0.125,-0.34375 l -3.14062,-8.3125 1.51562,0 1.71875,4.79688 q 0.34375,0.92187 0.60938,1.92187 0.23437,-0.96875 0.57812,-1.89062 l 1.76563,-4.82813 1.40625,0 -3.15625,8.4375 q -0.5,1.375 -0.78125,1.89063 -0.375,0.6875 -0.85938,1.01562 -0.48437,0.32813 -1.15625,0.32813 -0.40625,0 -0.90625,-0.17188 z m 6.75,-0.0156 0,-1.01563 9.32813,0 0,1.01563 -9.32813,0 z m 11.50781,-3.1875 -1.3125,0 0,-11.45313 1.40625,0 0,4.07813 q 0.89063,-1.10938 2.28125,-1.10938 0.76563,0 1.4375,0.3125 0.6875,0.29688 1.125,0.85938 0.45313,0.5625 0.70313,1.35937 0.25,0.78125 0.25,1.67188 0,2.14062 -1.0625,3.3125 -1.04688,1.15625 -2.53125,1.15625 -1.46875,0 -2.29688,-1.23438 l 0,1.04688 z m -0.0156,-4.21875 q 0,1.5 0.40625,2.15625 0.65625,1.09375 1.79687,1.09375 0.92188,0 1.59375,-0.79688 0.67188,-0.8125 0.67188,-2.39062 0,-1.625 -0.65625,-2.39063 -0.64063,-0.78125 -1.54688,-0.78125 -0.92187,0 -1.59375,0.79688 -0.67187,0.79687 -0.67187,2.3125 z m 13.02344,3.1875 q -0.78125,0.67187 -1.5,0.95312 -0.71875,0.26563 -1.54688,0.26563 -1.375,0 -2.10937,-0.67188 -0.73438,-0.67187 -0.73438,-1.70312 0,-0.60938 0.28125,-1.10938 0.28125,-0.51562 0.71875,-0.8125 0.45313,-0.3125 1.01563,-0.46875 0.42187,-0.10937 1.25,-0.20312 1.70312,-0.20313 2.51562,-0.48438 0,-0.29687 0,-0.375 0,-0.85937 -0.39062,-1.20312 -0.54688,-0.48438 -1.60938,-0.48438 -0.98437,0 -1.46875,0.35938 -0.46875,0.34375 -0.6875,1.21875 l -1.375,-0.1875 q 0.1875,-0.875 0.60938,-1.42188 0.4375,-0.54687 1.25,-0.82812 0.8125,-0.29688 1.875,-0.29688 1.0625,0 1.71875,0.25 0.67187,0.25 0.98437,0.625 0.3125,0.375 0.4375,0.95313 0.0781,0.35937 0.0781,1.29687 l 0,1.875 q 0,1.96875 0.0781,2.48438 0.0937,0.51562 0.35938,1 l -1.46875,0 q -0.21875,-0.4375 -0.28125,-1.03125 z m -0.10938,-3.14063 q -0.76562,0.3125 -2.29687,0.53125 -0.875,0.125 -1.23438,0.28125 -0.35937,0.15625 -0.5625,0.46875 -0.1875,0.29688 -0.1875,0.65625 0,0.5625 0.42188,0.9375 0.4375,0.375 1.25,0.375 0.8125,0 1.4375,-0.34375 0.64062,-0.35937 0.9375,-0.98437 0.23437,-0.46875 0.23437,-1.40625 l 0,-0.51563 z m 6.66406,2.90625 0.20313,1.25 q -0.59375,0.125 -1.0625,0.125 -0.76563,0 -1.1875,-0.23437 -0.42188,-0.25 -0.59375,-0.64063 -0.17188,-0.40625 -0.17188,-1.67187 l 0,-4.76563 -1.03125,0 0,-1.09375 1.03125,0 0,-2.0625 1.40625,-0.84375 0,2.90625 1.40625,0 0,1.09375 -1.40625,0 0,4.84375 q 0,0.60938 0.0625,0.78125 0.0781,0.17188 0.25,0.28125 0.17188,0.0937 0.48438,0.0937 0.23437,0 0.60937,-0.0625 z m 6.78907,-1.78125 1.39062,0.1875 q -0.23437,1.42188 -1.17187,2.23438 -0.92188,0.8125 -2.28125,0.8125 -1.70313,0 -2.75,-1.10938 -1.03125,-1.125 -1.03125,-3.20312 0,-1.34375 0.4375,-2.34375 0.45312,-1.01563 1.35937,-1.51563 0.92188,-0.5 1.98438,-0.5 1.35937,0 2.21875,0.6875 0.85937,0.67188 1.09375,1.9375 l -1.35938,0.20313 q -0.20312,-0.82813 -0.70312,-1.25 -0.48438,-0.42188 -1.1875,-0.42188 -1.0625,0 -1.73438,0.76563 -0.65625,0.75 -0.65625,2.40625 0,1.67187 0.64063,2.4375 0.64062,0.75 1.67187,0.75 0.82813,0 1.375,-0.5 0.5625,-0.51563 0.70313,-1.57813 z m 2.59375,3.04688 0,-11.45313 1.40625,0 0,4.10938 q 0.98437,-1.14063 2.48437,-1.14063 0.92188,0 1.59375,0.35938 0.6875,0.35937 0.96875,1 0.29688,0.64062 0.29688,1.85937 l 0,5.26563 -1.40625,0 0,-5.26563 q 0,-1.04687 -0.45313,-1.53125 -0.45312,-0.48437 -1.29687,-0.48437 -0.625,0 -1.17188,0.32812 -0.54687,0.32813 -0.78125,0.89063 -0.23437,0.54687 -0.23437,1.51562 l 0,4.54688 -1.40625,0 z"
       id="path39"
       inkscape:connector-curvature="0"
       style="fill:#000000;fill-rule:nonzero" />
    <path
       d="m 510.44476,440.87274 125.60626,0 0,76.56696 -125.60626,0 z"
       id="path41"
       inkscape:connector-curvature="0"
       style="fill:#ffffff;fill-rule:nonzero" />
    <path
       d="m 510.44476,440.87274 125.60626,0 0,76.56696 -125.60626,0 z"
       id="path43"
       inkscape:connector-curvature="0"
       style="fill-rule:nonzero;stroke:#000000;stroke-width:2;stroke-linecap:butt;stroke-linejoin:round" />
    <path
       d="m 520.95105,485.0162 0,-8.29687 1.25,0 0,1.15625 q 0.39062,-0.60938 1.03125,-0.96875 0.65625,-0.375 1.48437,-0.375 0.92188,0 1.51563,0.39062 0.59375,0.375 0.82812,1.0625 0.98438,-1.45312 2.5625,-1.45312 1.23438,0 1.89063,0.6875 0.67187,0.67187 0.67187,2.09375 l 0,5.70312 -1.39062,0 0,-5.23437 q 0,-0.84375 -0.14063,-1.20313 -0.14062,-0.375 -0.5,-0.59375 -0.35937,-0.23437 -0.84375,-0.23437 -0.875,0 -1.45312,0.57812 -0.57813,0.57813 -0.57813,1.85938 l 0,4.82812 -1.40625,0 0,-5.39062 q 0,-0.9375 -0.34375,-1.40625 -0.34375,-0.46875 -1.125,-0.46875 -0.59375,0 -1.09375,0.3125 -0.5,0.3125 -0.73437,0.92187 -0.21875,0.59375 -0.21875,1.71875 l 0,4.3125 -1.40625,0 z m 12.79687,-4.15625 q 0,-2.29687 1.28125,-3.40625 1.07813,-0.92187 2.60938,-0.92187 1.71875,0 2.79687,1.125 1.09375,1.10937 1.09375,3.09375 0,1.59375 -0.48437,2.51562 -0.48438,0.92188 -1.40625,1.4375 -0.90625,0.5 -2,0.5 -1.73438,0 -2.8125,-1.10937 -1.07813,-1.125 -1.07813,-3.23438 z m 1.45313,0 q 0,1.59375 0.6875,2.39063 0.70312,0.79687 1.75,0.79687 1.04687,0 1.73437,-0.79687 0.70313,-0.79688 0.70313,-2.4375 0,-1.53125 -0.70313,-2.32813 -0.6875,-0.79687 -1.73437,-0.79687 -1.04688,0 -1.75,0.79687 -0.6875,0.78125 -0.6875,2.375 z m 7.97656,4.15625 0,-8.29687 1.26563,0 0,1.17187 q 0.90625,-1.35937 2.64062,-1.35937 0.75,0 1.375,0.26562 0.625,0.26563 0.9375,0.70313 0.3125,0.4375 0.4375,1.04687 0.0781,0.39063 0.0781,1.35938 l 0,5.10937 -1.40625,0 0,-5.04687 q 0,-0.85938 -0.17188,-1.28125 -0.15625,-0.4375 -0.57812,-0.6875 -0.40625,-0.25 -0.96875,-0.25 -0.90625,0 -1.5625,0.57812 -0.64063,0.5625 -0.64063,2.15625 l 0,4.53125 -1.40625,0 z m 11.96094,-1.26562 0.20312,1.25 q -0.59375,0.125 -1.0625,0.125 -0.76562,0 -1.1875,-0.23438 -0.42187,-0.25 -0.59375,-0.64062 -0.17187,-0.40625 -0.17187,-1.67188 l 0,-4.76562 -1.03125,0 0,-1.09375 1.03125,0 0,-2.0625 1.40625,-0.84375 0,2.90625 1.40625,0 0,1.09375 -1.40625,0 0,4.84375 q 0,0.60937 0.0625,0.78125 0.0781,0.17187 0.25,0.28125 0.17187,0.0937 0.48437,0.0937 0.23438,0 0.60938,-0.0625 z m 1.38281,1.26562 0,-11.45312 1.40625,0 0,4.10937 q 0.98438,-1.14062 2.48438,-1.14062 0.92187,0 1.59375,0.35937 0.6875,0.35938 0.96875,1 0.29687,0.64063 0.29687,1.85938 l 0,5.26562 -1.40625,0 0,-5.26562 q 0,-1.04688 -0.45312,-1.53125 -0.45313,-0.48438 -1.29688,-0.48438 -0.625,0 -1.17187,0.32813 -0.54688,0.32812 -0.78125,0.89062 -0.23438,0.54688 -0.23438,1.51563 l 0,4.54687 -1.40625,0 z m 8.86719,0 0,-11.45312 1.40625,0 0,11.45312 -1.40625,0 z m 3.52344,3.20313 -0.15625,-1.32813 q 0.45312,0.125 0.79687,0.125 0.46875,0 0.75,-0.15625 0.28125,-0.15625 0.46875,-0.4375 0.125,-0.20312 0.42188,-1.04687 0.0469,-0.10938 0.125,-0.34375 l -3.14063,-8.3125 1.51563,0 1.71875,4.79687 q 0.34375,0.92188 0.60937,1.92188 0.23438,-0.96875 0.57813,-1.89063 l 1.76562,-4.82812 1.40625,0 -3.15625,8.4375 q -0.5,1.375 -0.78125,1.89062 -0.375,0.6875 -0.85937,1.01563 -0.48438,0.32812 -1.15625,0.32812 -0.40625,0 -0.90625,-0.17187 z m 6.75,-0.0156 0,-1.01562 9.32812,0 0,1.01562 -9.32812,0 z m 10.19531,-3.1875 0,-8.29687 1.26562,0 0,1.25 q 0.48438,-0.875 0.89063,-1.15625 0.40625,-0.28125 0.90625,-0.28125 0.70312,0 1.4375,0.45312 l -0.48438,1.29688 q -0.51562,-0.29688 -1.03125,-0.29688 -0.45312,0 -0.82812,0.28125 -0.35938,0.26563 -0.51563,0.76563 -0.23437,0.75 -0.23437,1.64062 l 0,4.34375 -1.40625,0 z m 11.01562,-2.67187 1.45313,0.17187 q -0.34375,1.28125 -1.28125,1.98438 -0.92188,0.70312 -2.35938,0.70312 -1.82812,0 -2.89062,-1.125 -1.0625,-1.125 -1.0625,-3.14062 0,-2.09375 1.07812,-3.25 1.07813,-1.15625 2.79688,-1.15625 1.65625,0 2.70312,1.14062 1.0625,1.125 1.0625,3.17188 0,0.125 0,0.375 l -6.1875,0 q 0.0781,1.375 0.76563,2.10937 0.70312,0.71875 1.73437,0.71875 0.78125,0 1.32813,-0.40625 0.54687,-0.40625 0.85937,-1.29687 z m -4.60937,-2.28125 4.625,0 q -0.0937,-1.04688 -0.53125,-1.5625 -0.67188,-0.8125 -1.73438,-0.8125 -0.96875,0 -1.64062,0.65625 -0.65625,0.64062 -0.71875,1.71875 z m 7.83594,8.14062 0,-11.48437 1.28125,0 0,1.07812 q 0.45312,-0.64062 1.01562,-0.95312 0.57813,-0.3125 1.39063,-0.3125 1.0625,0 1.875,0.54687 0.8125,0.54688 1.21875,1.54688 0.42187,0.98437 0.42187,2.17187 0,1.28125 -0.46875,2.29688 -0.45312,1.01562 -1.32812,1.5625 -0.85938,0.54687 -1.82813,0.54687 -0.70312,0 -1.26562,-0.29687 -0.54688,-0.29688 -0.90625,-0.75 l 0,4.04687 -1.40625,0 z m 1.26562,-7.29687 q 0,1.60937 0.64063,2.375 0.65625,0.76562 1.57812,0.76562 0.9375,0 1.60938,-0.79687 0.67187,-0.79688 0.67187,-2.45313 0,-1.59375 -0.65625,-2.375 -0.65625,-0.79687 -1.5625,-0.79687 -0.89062,0 -1.59375,0.84375 -0.6875,0.84375 -0.6875,2.4375 z m 7.10156,-0.0469 q 0,-2.29687 1.28125,-3.40625 1.07813,-0.92187 2.60938,-0.92187 1.71875,0 2.79687,1.125 1.09375,1.10937 1.09375,3.09375 0,1.59375 -0.48437,2.51562 -0.48438,0.92188 -1.40625,1.4375 -0.90625,0.5 -2,0.5 -1.73438,0 -2.8125,-1.10937 -1.07813,-1.125 -1.07813,-3.23438 z m 1.45313,0 q 0,1.59375 0.6875,2.39063 0.70312,0.79687 1.75,0.79687 1.04687,0 1.73437,-0.79687 0.70313,-0.79688 0.70313,-2.4375 0,-1.53125 -0.70313,-2.32813 -0.6875,-0.79687 -1.73437,-0.79687 -1.04688,0 -1.75,0.79687 -0.6875,0.78125 -0.6875,2.375 z m 7.96094,4.15625 0,-8.29687 1.26562,0 0,1.25 q 0.48438,-0.875 0.89063,-1.15625 0.40625,-0.28125 0.90625,-0.28125 0.70312,0 1.4375,0.45312 l -0.48438,1.29688 q -0.51562,-0.29688 -1.03125,-0.29688 -0.45312,0 -0.82812,0.28125 -0.35938,0.26563 -0.51563,0.76563 -0.23437,0.75 -0.23437,1.64062 l 0,4.34375 -1.40625,0 z m 8.40625,-1.26562 0.20312,1.25 q -0.59375,0.125 -1.0625,0.125 -0.76562,0 -1.1875,-0.23438 -0.42187,-0.25 -0.59375,-0.64062 -0.17187,-0.40625 -0.17187,-1.67188 l 0,-4.76562 -1.03125,0 0,-1.09375 1.03125,0 0,-2.0625 1.40625,-0.84375 0,2.90625 1.40625,0 0,1.09375 -1.40625,0 0,4.84375 q 0,0.60937 0.0625,0.78125 0.0781,0.17187 0.25,0.28125 0.17187,0.0937 0.48437,0.0937 0.23438,0 0.60938,-0.0625 z"
       id="path45"
       inkscape:connector-curvature="0"
       style="fill:#000000;fill-rule:nonzero" />
    <path
       d="M 328.21216,326.09384 251.80271,433.21197"
       id="path47"
       inkscape:connector-curvature="0"
       style="fill:#000000;fill-opacity:0;fill-rule:nonzero" />
    <path
       d="M 328.21216,326.09384 251.80271,433.21197"
       id="path49"
       inkscape:connector-curvature="0"
       style="fill-rule:nonzero;stroke:#000000;stroke-width:2;stroke-linecap:butt;stroke-linejoin:round" />
    <path
       d="m 328.21216,326.09384 75.96851,107.11813"
       id="path51"
       inkscape:connector-curvature="0"
       style="fill:#000000;fill-opacity:0;fill-rule:nonzero" />
    <path
       d="m 328.21216,326.09384 75.96851,107.11813"
       id="path53"
       inkscape:connector-curvature="0"
       style="fill-rule:nonzero;stroke:#000000;stroke-width:2;stroke-linecap:butt;stroke-linejoin:round" />
    <path
       d="m 573.2479,326.09384 0,114.77167"
       id="path55"
       inkscape:connector-curvature="0"
       style="fill:#000000;fill-opacity:0;fill-rule:nonzero" />
    <path
       d="m 573.2479,326.09384 0,114.77167"
       id="path57"
       inkscape:connector-curvature="0"
       style="fill-rule:nonzero;stroke:#000000;stroke-width:2;stroke-linecap:butt;stroke-linejoin:round" />
    <path
       d="M 613.6657,134.74803 328.21688,249.51968"
       id="path59"
       inkscape:connector-curvature="0"
       style="fill:#000000;fill-opacity:0;fill-rule:nonzero" />
    <path
       d="M 613.6657,134.74803 328.21688,249.51968"
       id="path61"
       inkscape:connector-curvature="0"
       style="fill-rule:nonzero;stroke:#000000;stroke-width:2;stroke-linecap:butt;stroke-linejoin:round" />
    <path
       d="M 613.6657,134.74803 573.25628,249.51968"
       id="path63"
       inkscape:connector-curvature="0"
       style="fill:#000000;fill-opacity:0;fill-rule:nonzero" />
    <path
       d="M 613.6657,134.74803 573.25628,249.51968"
       id="path65"
       inkscape:connector-curvature="0"
       style="fill-rule:nonzero;stroke:#000000;stroke-width:2;stroke-linecap:butt;stroke-linejoin:round" />
    <path
       d="m 728.2543,249.52692 125.60626,0 0,76.56692 -125.60626,0 z"
       id="path67"
       inkscape:connector-curvature="0"
       style="fill:#ffffff;fill-rule:nonzero" />
    <path
       d="m 728.2543,249.52692 125.60626,0 0,76.56692 -125.60626,0 z"
       id="path69"
       inkscape:connector-curvature="0"
       style="fill-rule:nonzero;stroke:#000000;stroke-width:2;stroke-linecap:butt;stroke-linejoin:round;stroke-dasharray:8, 6" />
    <path
       d="m 752.57697,293.67038 0,-1.04687 q -0.78125,1.23437 -2.3125,1.23437 -1,0 -1.82813,-0.54687 -0.82812,-0.54688 -1.29687,-1.53125 -0.45313,-0.98438 -0.45313,-2.25 0,-1.25 0.40625,-2.25 0.42188,-1.01563 1.25,-1.54688 0.82813,-0.54687 1.85938,-0.54687 0.75,0 1.32812,0.3125 0.59375,0.3125 0.95313,0.82812 l 0,-4.10937 1.40625,0 0,11.45312 -1.3125,0 z m -4.4375,-4.14062 q 0,1.59375 0.67187,2.39062 0.67188,0.78125 1.57813,0.78125 0.92187,0 1.5625,-0.75 0.65625,-0.76562 0.65625,-2.3125 0,-1.70312 -0.65625,-2.5 -0.65625,-0.79687 -1.625,-0.79687 -0.9375,0 -1.5625,0.76562 -0.625,0.76563 -0.625,2.42188 z m 13.63281,1.46875 1.45313,0.17187 q -0.34375,1.28125 -1.28125,1.98438 -0.92188,0.70312 -2.35938,0.70312 -1.82812,0 -2.89062,-1.125 -1.0625,-1.125 -1.0625,-3.14062 0,-2.09375 1.07812,-3.25 1.07813,-1.15625 2.79688,-1.15625 1.65625,0 2.70312,1.14062 1.0625,1.125 1.0625,3.17188 0,0.125 0,0.375 l -6.1875,0 q 0.0781,1.375 0.76563,2.10937 0.70312,0.71875 1.73437,0.71875 0.78125,0 1.32813,-0.40625 0.54687,-0.40625 0.85937,-1.29687 z m -4.60937,-2.28125 4.625,0 q -0.0937,-1.04688 -0.53125,-1.5625 -0.67188,-0.8125 -1.73438,-0.8125 -0.96875,0 -1.64062,0.65625 -0.65625,0.64062 -0.71875,1.71875 z m 7.83593,8.14062 0,-11.48437 1.28125,0 0,1.07812 q 0.45313,-0.64062 1.01563,-0.95312 0.57812,-0.3125 1.39062,-0.3125 1.0625,0 1.875,0.54687 0.8125,0.54688 1.21875,1.54688 0.42188,0.98437 0.42188,2.17187 0,1.28125 -0.46875,2.29688 -0.45313,1.01562 -1.32813,1.5625 -0.85937,0.54687 -1.82812,0.54687 -0.70313,0 -1.26563,-0.29687 -0.54687,-0.29688 -0.90625,-0.75 l 0,4.04687 -1.40625,0 z m 1.26563,-7.29687 q 0,1.60937 0.64062,2.375 0.65625,0.76562 1.57813,0.76562 0.9375,0 1.60937,-0.79687 0.67188,-0.79688 0.67188,-2.45313 0,-1.59375 -0.65625,-2.375 -0.65625,-0.79687 -1.5625,-0.79687 -0.89063,0 -1.59375,0.84375 -0.6875,0.84375 -0.6875,2.4375 z m 13.03906,3.07812 q -0.78125,0.67188 -1.5,0.95313 -0.71875,0.26562 -1.54687,0.26562 -1.375,0 -2.10938,-0.67187 -0.73437,-0.67188 -0.73437,-1.70313 0,-0.60937 0.28125,-1.10937 0.28125,-0.51563 0.71875,-0.8125 0.45312,-0.3125 1.01562,-0.46875 0.42188,-0.10938 1.25,-0.20313 1.70313,-0.20312 2.51563,-0.48437 0,-0.29688 0,-0.375 0,-0.85938 -0.39063,-1.20313 -0.54687,-0.48437 -1.60937,-0.48437 -0.98438,0 -1.46875,0.35937 -0.46875,0.34375 -0.6875,1.21875 l -1.375,-0.1875 q 0.1875,-0.875 0.60937,-1.42187 0.4375,-0.54688 1.25,-0.82813 0.8125,-0.29687 1.875,-0.29687 1.0625,0 1.71875,0.25 0.67188,0.25 0.98438,0.625 0.3125,0.375 0.4375,0.95312 0.0781,0.35938 0.0781,1.29688 l 0,1.875 q 0,1.96875 0.0781,2.48437 0.0937,0.51563 0.35937,1 l -1.46875,0 q -0.21875,-0.4375 -0.28125,-1.03125 z m -0.10937,-3.14062 q -0.76563,0.3125 -2.29688,0.53125 -0.875,0.125 -1.23437,0.28125 -0.35938,0.15625 -0.5625,0.46875 -0.1875,0.29687 -0.1875,0.65625 0,0.5625 0.42187,0.9375 0.4375,0.375 1.25,0.375 0.8125,0 1.4375,-0.34375 0.64063,-0.35938 0.9375,-0.98438 0.23438,-0.46875 0.23438,-1.40625 l 0,-0.51562 z m 3.58593,4.17187 0,-8.29687 1.26563,0 0,1.25 q 0.48437,-0.875 0.89062,-1.15625 0.40625,-0.28125 0.90625,-0.28125 0.70313,0 1.4375,0.45312 l -0.48437,1.29688 q -0.51563,-0.29688 -1.03125,-0.29688 -0.45313,0 -0.82813,0.28125 -0.35937,0.26563 -0.51562,0.76563 -0.23438,0.75 -0.23438,1.64062 l 0,4.34375 -1.40625,0 z m 8.40625,-1.26562 0.20313,1.25 q -0.59375,0.125 -1.0625,0.125 -0.76563,0 -1.1875,-0.23438 -0.42188,-0.25 -0.59375,-0.64062 -0.17188,-0.40625 -0.17188,-1.67188 l 0,-4.76562 -1.03125,0 0,-1.09375 1.03125,0 0,-2.0625 1.40625,-0.84375 0,2.90625 1.40625,0 0,1.09375 -1.40625,0 0,4.84375 q 0,0.60937 0.0625,0.78125 0.0781,0.17187 0.25,0.28125 0.17188,0.0937 0.48438,0.0937 0.23437,0 0.60937,-0.0625 z m 1.38282,1.26562 0,-8.29687 1.25,0 0,1.15625 q 0.39062,-0.60938 1.03125,-0.96875 0.65625,-0.375 1.48437,-0.375 0.92188,0 1.51563,0.39062 0.59375,0.375 0.82812,1.0625 0.98438,-1.45312 2.5625,-1.45312 1.23438,0 1.89063,0.6875 0.67187,0.67187 0.67187,2.09375 l 0,5.70312 -1.39062,0 0,-5.23437 q 0,-0.84375 -0.14063,-1.20313 -0.14062,-0.375 -0.5,-0.59375 -0.35937,-0.23437 -0.84375,-0.23437 -0.875,0 -1.45312,0.57812 -0.57813,0.57813 -0.57813,1.85938 l 0,4.82812 -1.40625,0 0,-5.39062 q 0,-0.9375 -0.34375,-1.40625 -0.34375,-0.46875 -1.125,-0.46875 -0.59375,0 -1.09375,0.3125 -0.5,0.3125 -0.73437,0.92187 -0.21875,0.59375 -0.21875,1.71875 l 0,4.3125 -1.40625,0 z m 19,-2.67187 1.45312,0.17187 q -0.34375,1.28125 -1.28125,1.98438 -0.92187,0.70312 -2.35937,0.70312 -1.82813,0 -2.89063,-1.125 -1.0625,-1.125 -1.0625,-3.14062 0,-2.09375 1.07813,-3.25 1.07812,-1.15625 2.79687,-1.15625 1.65625,0 2.70313,1.14062 1.0625,1.125 1.0625,3.17188 0,0.125 0,0.375 l -6.1875,0 q 0.0781,1.375 0.76562,2.10937 0.70313,0.71875 1.73438,0.71875 0.78125,0 1.32812,-0.40625 0.54688,-0.40625 0.85938,-1.29687 z m -4.60938,-2.28125 4.625,0 q -0.0937,-1.04688 -0.53125,-1.5625 -0.67187,-0.8125 -1.73437,-0.8125 -0.96875,0 -1.64063,0.65625 -0.65625,0.64062 -0.71875,1.71875 z m 7.83594,4.95312 0,-8.29687 1.26562,0 0,1.17187 q 0.90625,-1.35937 2.64063,-1.35937 0.75,0 1.375,0.26562 0.625,0.26563 0.9375,0.70313 0.3125,0.4375 0.4375,1.04687 0.0781,0.39063 0.0781,1.35938 l 0,5.10937 -1.40625,0 0,-5.04687 q 0,-0.85938 -0.17187,-1.28125 -0.15625,-0.4375 -0.57813,-0.6875 -0.40625,-0.25 -0.96875,-0.25 -0.90625,0 -1.5625,0.57812 -0.64062,0.5625 -0.64062,2.15625 l 0,4.53125 -1.40625,0 z m 11.96094,-1.26562 0.20312,1.25 q -0.59375,0.125 -1.0625,0.125 -0.76562,0 -1.1875,-0.23438 -0.42187,-0.25 -0.59375,-0.64062 -0.17187,-0.40625 -0.17187,-1.67188 l 0,-4.76562 -1.03125,0 0,-1.09375 1.03125,0 0,-2.0625 1.40625,-0.84375 0,2.90625 1.40625,0 0,1.09375 -1.40625,0 0,4.84375 q 0,0.60937 0.0625,0.78125 0.0781,0.17187 0.25,0.28125 0.17187,0.0937 0.48437,0.0937 0.23438,0 0.60938,-0.0625 z m 0.99218,-1.76563 1.40625,-0.1875 q 0.25,1.20313 0.82813,1.73438 0.57812,0.51562 1.42187,0.51562 0.98438,0 1.67188,-0.6875 0.6875,-0.6875 0.6875,-1.70312 0,-0.96875 -0.64063,-1.59375 -0.625,-0.625 -1.60937,-0.625 -0.39063,0 -0.98438,0.15625 l 0.15625,-1.23438 q 0.14063,0.0156 0.21875,0.0156 0.90625,0 1.625,-0.46875 0.71875,-0.46875 0.71875,-1.45313 0,-0.76562 -0.53125,-1.26562 -0.51562,-0.51563 -1.34375,-0.51563 -0.82812,0 -1.375,0.51563 -0.54687,0.51562 -0.70312,1.54687 l -1.40625,-0.25 q 0.26562,-1.42187 1.17187,-2.1875 0.92188,-0.78125 2.28125,-0.78125 0.9375,0 1.71875,0.40625 0.79688,0.39063 1.20313,1.09375 0.42187,0.6875 0.42187,1.46875 0,0.75 -0.40625,1.35938 -0.39062,0.60937 -1.17187,0.96875 1.01562,0.23437 1.57812,0.96875 0.5625,0.73437 0.5625,1.84375 0,1.5 -1.09375,2.54687 -1.09375,1.04688 -2.76562,1.04688 -1.5,0 -2.5,-0.89063 -1,-0.90625 -1.14063,-2.34375 z"
       id="path71"
       inkscape:connector-curvature="0"
       style="fill:#000000;fill-rule:nonzero" />
    <path
       d="M 613.6657,134.74803 791.05156,249.51968"
       id="path73"
       inkscape:connector-curvature="0"
       style="fill:#000000;fill-opacity:0;fill-rule:nonzero" />
    <path
       d="M 613.6657,134.74803 791.05156,249.51968"
       id="path75"
       inkscape:connector-curvature="0"
       style="fill-rule:nonzero;stroke:#000000;stroke-width:2;stroke-linecap:butt;stroke-linejoin:round" />
    <path
       d="m 657.1149,440.87274 125.60626,0 0,76.56696 -125.60626,0 z"
       id="path77"
       inkscape:connector-curvature="0"
       style="fill:#ffffff;fill-rule:nonzero" />
    <path
       d="m 657.1149,440.87274 125.60626,0 0,76.56696 -125.60626,0 z"
       id="path79"
       inkscape:connector-curvature="0"
       style="fill-rule:nonzero;stroke:#000000;stroke-width:2;stroke-linecap:butt;stroke-linejoin:round" />
    <path
       d="m 700.1407,483.98495 q -0.78125,0.67188 -1.5,0.95313 -0.71875,0.26562 -1.54687,0.26562 -1.375,0 -2.10938,-0.67187 -0.73437,-0.67188 -0.73437,-1.70313 0,-0.60937 0.28125,-1.10937 0.28125,-0.51563 0.71875,-0.8125 0.45312,-0.3125 1.01562,-0.46875 0.42188,-0.10938 1.25,-0.20313 1.70313,-0.20312 2.51563,-0.48437 0,-0.29688 0,-0.375 0,-0.85938 -0.39063,-1.20313 -0.54687,-0.48437 -1.60937,-0.48437 -0.98438,0 -1.46875,0.35937 -0.46875,0.34375 -0.6875,1.21875 l -1.375,-0.1875 q 0.1875,-0.875 0.60937,-1.42187 0.4375,-0.54688 1.25,-0.82813 0.8125,-0.29687 1.875,-0.29687 1.0625,0 1.71875,0.25 0.67188,0.25 0.98438,0.625 0.3125,0.375 0.4375,0.95312 0.0781,0.35938 0.0781,1.29688 l 0,1.875 q 0,1.96875 0.0781,2.48437 0.0937,0.51563 0.35937,1 l -1.46875,0 q -0.21875,-0.4375 -0.28125,-1.03125 z m -0.10937,-3.14062 q -0.76563,0.3125 -2.29688,0.53125 -0.875,0.125 -1.23437,0.28125 -0.35938,0.15625 -0.5625,0.46875 -0.1875,0.29687 -0.1875,0.65625 0,0.5625 0.42187,0.9375 0.4375,0.375 1.25,0.375 0.8125,0 1.4375,-0.34375 0.64063,-0.35938 0.9375,-0.98438 0.23438,-0.46875 0.23438,-1.40625 l 0,-0.51562 z m 8.97656,4.17187 0,-1.04687 q -0.78125,1.23437 -2.3125,1.23437 -1,0 -1.82813,-0.54687 -0.82812,-0.54688 -1.29687,-1.53125 -0.45313,-0.98438 -0.45313,-2.25 0,-1.25 0.40625,-2.25 0.42188,-1.01563 1.25,-1.54688 0.82813,-0.54687 1.85938,-0.54687 0.75,0 1.32812,0.3125 0.59375,0.3125 0.95313,0.82812 l 0,-4.10937 1.40625,0 0,11.45312 -1.3125,0 z m -4.4375,-4.14062 q 0,1.59375 0.67187,2.39062 0.67188,0.78125 1.57813,0.78125 0.92187,0 1.5625,-0.75 0.65625,-0.76562 0.65625,-2.3125 0,-1.70312 -0.65625,-2.5 -0.65625,-0.79687 -1.625,-0.79687 -0.9375,0 -1.5625,0.76562 -0.625,0.76563 -0.625,2.42188 z m 7.96094,4.14062 0,-11.45312 1.40625,0 0,4.10937 q 0.98437,-1.14062 2.48437,-1.14062 0.92188,0 1.59375,0.35937 0.6875,0.35938 0.96875,1 0.29688,0.64063 0.29688,1.85938 l 0,5.26562 -1.40625,0 0,-5.26562 q 0,-1.04688 -0.45313,-1.53125 -0.45312,-0.48438 -1.29687,-0.48438 -0.625,0 -1.17188,0.32813 -0.54687,0.32812 -0.78125,0.89062 -0.23437,0.54688 -0.23437,1.51563 l 0,4.54687 -1.40625,0 z m 8.36718,-4.15625 q 0,-2.29687 1.28125,-3.40625 1.07813,-0.92187 2.60938,-0.92187 1.71875,0 2.79687,1.125 1.09375,1.10937 1.09375,3.09375 0,1.59375 -0.48437,2.51562 -0.48438,0.92188 -1.40625,1.4375 -0.90625,0.5 -2,0.5 -1.73438,0 -2.8125,-1.10937 -1.07813,-1.125 -1.07813,-3.23438 z m 1.45313,0 q 0,1.59375 0.6875,2.39063 0.70312,0.79687 1.75,0.79687 1.04687,0 1.73437,-0.79687 0.70313,-0.79688 0.70313,-2.4375 0,-1.53125 -0.70313,-2.32813 -0.6875,-0.79687 -1.73437,-0.79687 -1.04688,0 -1.75,0.79687 -0.6875,0.78125 -0.6875,2.375 z m 13.38281,1.10938 1.39063,0.1875 q -0.23438,1.42187 -1.17188,2.23437 -0.92187,0.8125 -2.28125,0.8125 -1.70312,0 -2.75,-1.10937 -1.03125,-1.125 -1.03125,-3.20313 0,-1.34375 0.4375,-2.34375 0.45313,-1.01562 1.35938,-1.51562 0.92187,-0.5 1.98437,-0.5 1.35938,0 2.21875,0.6875 0.85938,0.67187 1.09375,1.9375 l -1.35937,0.20312 q -0.20313,-0.82812 -0.70313,-1.25 -0.48437,-0.42187 -1.1875,-0.42187 -1.0625,0 -1.73437,0.76562 -0.65625,0.75 -0.65625,2.40625 0,1.67188 0.64062,2.4375 0.64063,0.75 1.67188,0.75 0.82812,0 1.375,-0.5 0.5625,-0.51562 0.70312,-1.57812 z m 9.59375,1.6875 0,1.35937 -7.57812,0 q -0.0156,-0.51562 0.17187,-0.98437 0.28125,-0.76563 0.92188,-1.51563 0.64062,-0.75 1.84375,-1.73437 1.85937,-1.53125 2.51562,-2.42188 0.65625,-0.90625 0.65625,-1.70312 0,-0.82813 -0.59375,-1.40625 -0.59375,-0.57813 -1.5625,-0.57813 -1.01562,0 -1.625,0.60938 -0.60937,0.60937 -0.60937,1.6875 l -1.45313,-0.14063 q 0.15625,-1.625 1.125,-2.46875 0.96875,-0.84375 2.59375,-0.84375 1.65625,0 2.60938,0.92188 0.96875,0.90625 0.96875,2.25 0,0.6875 -0.28125,1.35937 -0.28125,0.65625 -0.9375,1.39063 -0.65625,0.73437 -2.17188,2.01562 -1.26562,1.0625 -1.625,1.45313 -0.35937,0.375 -0.59375,0.75 l 5.625,0 z"
       id="path81"
       inkscape:connector-curvature="0"
       style="fill:#000000;fill-rule:nonzero" />
    <path
       d="M 791.05743,326.09384 719.90777,440.86551"
       id="path83"
       inkscape:connector-curvature="0"
       style="fill:#000000;fill-opacity:0;fill-rule:nonzero" />
    <path
       d="M 791.05743,326.09384 719.90777,440.86551"
       id="path85"
       inkscape:connector-curvature="0"
       style="fill-rule:nonzero;stroke:#000000;stroke-width:2;stroke-linecap:butt;stroke-linejoin:round" />
    <path
       d="m 803.78503,440.88477 125.60626,0 0,76.5669 -125.60626,0 z"
       id="path87"
       inkscape:connector-curvature="0"
       style="fill:#ffffff;fill-rule:nonzero" />
    <path
       d="m 803.78503,440.88477 125.60626,0 0,76.5669 -125.60626,0 z"
       id="path89"
       inkscape:connector-curvature="0"
       style="fill-rule:nonzero;stroke:#000000;stroke-width:2;stroke-linecap:butt;stroke-linejoin:round" />
    <path
       d="m 831.2249,485.02823 0,-1.04688 q -0.78125,1.23438 -2.3125,1.23438 -1,0 -1.82812,-0.54688 -0.82813,-0.54687 -1.29688,-1.53125 -0.45312,-0.98437 -0.45312,-2.25 0,-1.25 0.40625,-2.25 0.42187,-1.01562 1.25,-1.54687 0.82812,-0.54688 1.85937,-0.54688 0.75,0 1.32813,0.3125 0.59375,0.3125 0.95312,0.82813 l 0,-4.10938 1.40625,0 0,11.45313 -1.3125,0 z m -4.4375,-4.14063 q 0,1.59375 0.67188,2.39063 0.67187,0.78125 1.57812,0.78125 0.92188,0 1.5625,-0.75 0.65625,-0.76563 0.65625,-2.3125 0,-1.70313 -0.65625,-2.5 -0.65625,-0.79688 -1.625,-0.79688 -0.9375,0 -1.5625,0.76563 -0.625,0.76562 -0.625,2.42187 z m 13.36719,3.10938 q -0.78125,0.67187 -1.5,0.95312 -0.71875,0.26563 -1.54688,0.26563 -1.375,0 -2.10937,-0.67188 -0.73438,-0.67187 -0.73438,-1.70312 0,-0.60938 0.28125,-1.10938 0.28125,-0.51562 0.71875,-0.8125 0.45313,-0.3125 1.01563,-0.46875 0.42187,-0.10937 1.25,-0.20312 1.70312,-0.20313 2.51562,-0.48438 0,-0.29687 0,-0.375 0,-0.85937 -0.39062,-1.20312 -0.54688,-0.48438 -1.60938,-0.48438 -0.98437,0 -1.46875,0.35938 -0.46875,0.34375 -0.6875,1.21875 l -1.375,-0.1875 q 0.1875,-0.875 0.60938,-1.42188 0.4375,-0.54687 1.25,-0.82812 0.8125,-0.29688 1.875,-0.29688 1.0625,0 1.71875,0.25 0.67187,0.25 0.98437,0.625 0.3125,0.375 0.4375,0.95313 0.0781,0.35937 0.0781,1.29687 l 0,1.875 q 0,1.96875 0.0781,2.48438 0.0937,0.51562 0.35938,1 l -1.46875,0 q -0.21875,-0.4375 -0.28125,-1.03125 z m -0.10938,-3.14063 q -0.76562,0.3125 -2.29687,0.53125 -0.875,0.125 -1.23438,0.28125 -0.35937,0.15625 -0.5625,0.46875 -0.1875,0.29688 -0.1875,0.65625 0,0.5625 0.42188,0.9375 0.4375,0.375 1.25,0.375 0.8125,0 1.4375,-0.34375 0.64062,-0.35937 0.9375,-0.98437 0.23437,-0.46875 0.23437,-1.40625 l 0,-0.51563 z m 3.60157,-5.67187 0,-1.60938 1.40625,0 0,1.60938 -1.40625,0 z m 0,9.84375 0,-8.29688 1.40625,0 0,8.29688 -1.40625,0 z m 3.52343,0 0,-11.45313 1.40625,0 0,11.45313 -1.40625,0 z m 3.52344,3.20312 -0.15625,-1.32812 q 0.45313,0.125 0.79688,0.125 0.46875,0 0.75,-0.15625 0.28125,-0.15625 0.46875,-0.4375 0.125,-0.20313 0.42187,-1.04688 0.0469,-0.10937 0.125,-0.34375 l -3.14062,-8.3125 1.51562,0 1.71875,4.79688 q 0.34375,0.92187 0.60938,1.92187 0.23437,-0.96875 0.57812,-1.89062 l 1.76563,-4.82813 1.40625,0 -3.15625,8.4375 q -0.5,1.375 -0.78125,1.89063 -0.375,0.6875 -0.85938,1.01562 -0.48437,0.32813 -1.15625,0.32813 -0.40625,0 -0.90625,-0.17188 z m 6.75,-0.0156 0,-1.01563 9.32813,0 0,1.01563 -9.32813,0 z m 10.19531,-3.1875 0,-8.29688 1.26563,0 0,1.25 q 0.48437,-0.875 0.89062,-1.15625 0.40625,-0.28125 0.90625,-0.28125 0.70313,0 1.4375,0.45313 l -0.48437,1.29687 q -0.51563,-0.29687 -1.03125,-0.29687 -0.45313,0 -0.82813,0.28125 -0.35937,0.26562 -0.51562,0.76562 -0.23438,0.75 -0.23438,1.64063 l 0,4.34375 -1.40625,0 z m 11.01563,-2.67188 1.45312,0.17188 q -0.34375,1.28125 -1.28125,1.98437 -0.92187,0.70313 -2.35937,0.70313 -1.82813,0 -2.89063,-1.125 -1.0625,-1.125 -1.0625,-3.14063 0,-2.09375 1.07813,-3.25 1.07812,-1.15625 2.79687,-1.15625 1.65625,0 2.70313,1.14063 1.0625,1.125 1.0625,3.17187 0,0.125 0,0.375 l -6.1875,0 q 0.0781,1.375 0.76562,2.10938 0.70313,0.71875 1.73438,0.71875 0.78125,0 1.32812,-0.40625 0.54688,-0.40625 0.85938,-1.29688 z m -4.60938,-2.28125 4.625,0 q -0.0937,-1.04687 -0.53125,-1.5625 -0.67187,-0.8125 -1.73437,-0.8125 -0.96875,0 -1.64063,0.65625 -0.65625,0.64063 -0.71875,1.71875 z m 7.83594,8.14063 0,-11.48438 1.28125,0 0,1.07813 q 0.45313,-0.64063 1.01563,-0.95313 0.57812,-0.3125 1.39062,-0.3125 1.0625,0 1.875,0.54688 0.8125,0.54687 1.21875,1.54687 0.42188,0.98438 0.42188,2.17188 0,1.28125 -0.46875,2.29687 -0.45313,1.01563 -1.32813,1.5625 -0.85937,0.54688 -1.82812,0.54688 -0.70313,0 -1.26563,-0.29688 -0.54687,-0.29687 -0.90625,-0.75 l 0,4.04688 -1.40625,0 z m 1.26563,-7.29688 q 0,1.60938 0.64062,2.375 0.65625,0.76563 1.57813,0.76563 0.9375,0 1.60937,-0.79688 0.67188,-0.79687 0.67188,-2.45312 0,-1.59375 -0.65625,-2.375 -0.65625,-0.79688 -1.5625,-0.79688 -0.89063,0 -1.59375,0.84375 -0.6875,0.84375 -0.6875,2.4375 z m 7.10156,-0.0469 q 0,-2.29688 1.28125,-3.40625 1.07812,-0.92188 2.60937,-0.92188 1.71875,0 2.79688,1.125 1.09375,1.10938 1.09375,3.09375 0,1.59375 -0.48438,2.51563 -0.48437,0.92187 -1.40625,1.4375 -0.90625,0.5 -2,0.5 -1.73437,0 -2.8125,-1.10938 -1.07812,-1.125 -1.07812,-3.23437 z m 1.45312,0 q 0,1.59375 0.6875,2.39062 0.70313,0.79688 1.75,0.79688 1.04688,0 1.73438,-0.79688 0.70312,-0.79687 0.70312,-2.4375 0,-1.53125 -0.70312,-2.32812 -0.6875,-0.79688 -1.73438,-0.79688 -1.04687,0 -1.75,0.79688 -0.6875,0.78125 -0.6875,2.375 z m 7.96094,4.15625 0,-8.29688 1.26563,0 0,1.25 q 0.48437,-0.875 0.89062,-1.15625 0.40625,-0.28125 0.90625,-0.28125 0.70313,0 1.4375,0.45313 l -0.48437,1.29687 q -0.51563,-0.29687 -1.03125,-0.29687 -0.45313,0 -0.82813,0.28125 -0.35937,0.26562 -0.51562,0.76562 -0.23438,0.75 -0.23438,1.64063 l 0,4.34375 -1.40625,0 z m 8.40625,-1.26563 0.20313,1.25 q -0.59375,0.125 -1.0625,0.125 -0.76563,0 -1.1875,-0.23437 -0.42188,-0.25 -0.59375,-0.64063 -0.17188,-0.40625 -0.17188,-1.67187 l 0,-4.76563 -1.03125,0 0,-1.09375 1.03125,0 0,-2.0625 1.40625,-0.84375 0,2.90625 1.40625,0 0,1.09375 -1.40625,0 0,4.84375 q 0,0.60938 0.0625,0.78125 0.0781,0.17188 0.25,0.28125 0.17188,0.0937 0.48438,0.0937 0.23437,0 0.60937,-0.0625 z"
       id="path91"
       inkscape:connector-curvature="0"
       style="fill:#000000;fill-rule:nonzero" />
    <path
       d="M 791.05743,326.09384 866.58496,440.897"
       id="path93"
       inkscape:connector-curvature="0"
       style="fill:#000000;fill-opacity:0;fill-rule:nonzero" />
    <path
       d="M 791.05743,326.09384 866.58496,440.897"
       id="path95"
       inkscape:connector-curvature="0"
       style="fill-rule:nonzero;stroke:#000000;stroke-width:2;stroke-linecap:butt;stroke-linejoin:round" />
    <path
       d="m 896.80316,249.52692 125.60624,0 0,76.56692 -125.60624,0 z"
       id="path97"
       inkscape:connector-curvature="0"
       style="fill:#ffffff;fill-rule:nonzero" />
    <path
       d="m 896.80316,249.52692 125.60624,0 0,76.56692 -125.60624,0 z"
       id="path99"
       inkscape:connector-curvature="0"
       style="fill-rule:nonzero;stroke:#000000;stroke-width:2;stroke-linecap:butt;stroke-linejoin:round" />
    <path
       d="m 927.829,290.6235 1.39062,0.1875 q -0.23437,1.42187 -1.17187,2.23437 -0.92188,0.8125 -2.28125,0.8125 -1.70313,0 -2.75,-1.10937 -1.03125,-1.125 -1.03125,-3.20313 0,-1.34375 0.4375,-2.34375 0.45312,-1.01562 1.35937,-1.51562 0.92188,-0.5 1.98438,-0.5 1.35937,0 2.21875,0.6875 0.85937,0.67187 1.09375,1.9375 l -1.35938,0.20312 q -0.20312,-0.82812 -0.70312,-1.25 -0.48438,-0.42187 -1.1875,-0.42187 -1.0625,0 -1.73438,0.76562 -0.65625,0.75 -0.65625,2.40625 0,1.67188 0.64063,2.4375 0.64062,0.75 1.67187,0.75 0.82813,0 1.375,-0.5 0.5625,-0.51562 0.70313,-1.57812 z m 8.26562,0.375 1.45313,0.17187 q -0.34375,1.28125 -1.28125,1.98438 -0.92188,0.70312 -2.35938,0.70312 -1.82812,0 -2.89062,-1.125 -1.0625,-1.125 -1.0625,-3.14062 0,-2.09375 1.07812,-3.25 1.07813,-1.15625 2.79688,-1.15625 1.65625,0 2.70312,1.14062 1.0625,1.125 1.0625,3.17188 0,0.125 0,0.375 l -6.1875,0 q 0.0781,1.375 0.76563,2.10937 0.70312,0.71875 1.73437,0.71875 0.78125,0 1.32813,-0.40625 0.54687,-0.40625 0.85937,-1.29687 z m -4.60937,-2.28125 4.625,0 q -0.0937,-1.04688 -0.53125,-1.5625 -0.67188,-0.8125 -1.73438,-0.8125 -0.96875,0 -1.64062,0.65625 -0.65625,0.64062 -0.71875,1.71875 z m 7.30469,0.79687 q 0,-2.29687 1.28125,-3.40625 1.07812,-0.92187 2.60937,-0.92187 1.71875,0 2.79688,1.125 1.09375,1.10937 1.09375,3.09375 0,1.59375 -0.48438,2.51562 -0.48437,0.92188 -1.40625,1.4375 -0.90625,0.5 -2,0.5 -1.73437,0 -2.8125,-1.10937 -1.07812,-1.125 -1.07812,-3.23438 z m 1.45312,0 q 0,1.59375 0.6875,2.39063 0.70313,0.79687 1.75,0.79687 1.04688,0 1.73438,-0.79687 0.70312,-0.79688 0.70312,-2.4375 0,-1.53125 -0.70312,-2.32813 -0.6875,-0.79687 -1.73438,-0.79687 -1.04687,0 -1.75,0.79687 -0.6875,0.78125 -0.6875,2.375 z m 6.66406,7.34375 0,-1.01562 9.32813,0 0,1.01562 -9.32813,0 z m 10.19532,-3.1875 0,-8.29687 1.26562,0 0,1.25 q 0.48438,-0.875 0.89063,-1.15625 0.40625,-0.28125 0.90625,-0.28125 0.70312,0 1.4375,0.45312 l -0.48438,1.29688 q -0.51562,-0.29688 -1.03125,-0.29688 -0.45312,0 -0.82812,0.28125 -0.35938,0.26563 -0.51563,0.76563 -0.23437,0.75 -0.23437,1.64062 l 0,4.34375 -1.40625,0 z m 11.01562,-2.67187 1.45313,0.17187 q -0.34375,1.28125 -1.28125,1.98438 -0.92188,0.70312 -2.35938,0.70312 -1.82812,0 -2.89062,-1.125 -1.0625,-1.125 -1.0625,-3.14062 0,-2.09375 1.07812,-3.25 1.07813,-1.15625 2.79688,-1.15625 1.65625,0 2.70312,1.14062 1.0625,1.125 1.0625,3.17188 0,0.125 0,0.375 l -6.1875,0 q 0.0781,1.375 0.76563,2.10937 0.70312,0.71875 1.73437,0.71875 0.78125,0 1.32813,-0.40625 0.54687,-0.40625 0.85937,-1.29687 z m -4.60937,-2.28125 4.625,0 q -0.0937,-1.04688 -0.53125,-1.5625 -0.67188,-0.8125 -1.73438,-0.8125 -0.96875,0 -1.64062,0.65625 -0.65625,0.64062 -0.71875,1.71875 z m 7.83593,8.14062 0,-11.48437 1.28125,0 0,1.07812 q 0.45313,-0.64062 1.01563,-0.95312 0.57812,-0.3125 1.39062,-0.3125 1.0625,0 1.875,0.54687 0.8125,0.54688 1.21875,1.54688 0.42188,0.98437 0.42188,2.17187 0,1.28125 -0.46875,2.29688 -0.45313,1.01562 -1.32813,1.5625 -0.85937,0.54687 -1.82812,0.54687 -0.70313,0 -1.26563,-0.29687 -0.54687,-0.29688 -0.90625,-0.75 l 0,4.04687 -1.40625,0 z m 1.26563,-7.29687 q 0,1.60937 0.64062,2.375 0.65625,0.76562 1.57813,0.76562 0.9375,0 1.60937,-0.79687 0.67188,-0.79688 0.67188,-2.45313 0,-1.59375 -0.65625,-2.375 -0.65625,-0.79687 -1.5625,-0.79687 -0.89063,0 -1.59375,0.84375 -0.6875,0.84375 -0.6875,2.4375 z m 7.10156,-0.0469 q 0,-2.29687 1.28125,-3.40625 1.07813,-0.92187 2.60938,-0.92187 1.71875,0 2.79687,1.125 1.09375,1.10937 1.09375,3.09375 0,1.59375 -0.48437,2.51562 -0.48438,0.92188 -1.40625,1.4375 -0.90625,0.5 -2,0.5 -1.73438,0 -2.8125,-1.10937 -1.07813,-1.125 -1.07813,-3.23438 z m 1.45313,0 q 0,1.59375 0.6875,2.39063 0.70312,0.79687 1.75,0.79687 1.04687,0 1.73437,-0.79687 0.70313,-0.79688 0.70313,-2.4375 0,-1.53125 -0.70313,-2.32813 -0.6875,-0.79687 -1.73437,-0.79687 -1.04688,0 -1.75,0.79687 -0.6875,0.78125 -0.6875,2.375 z m 7.96093,4.15625 0,-8.29687 1.26563,0 0,1.25 q 0.48437,-0.875 0.89062,-1.15625 0.40625,-0.28125 0.90625,-0.28125 0.70313,0 1.4375,0.45312 l -0.48437,1.29688 q -0.51563,-0.29688 -1.03125,-0.29688 -0.45313,0 -0.82813,0.28125 -0.35937,0.26563 -0.51562,0.76563 -0.23438,0.75 -0.23438,1.64062 l 0,4.34375 -1.40625,0 z m 8.40625,-1.26562 0.20313,1.25 q -0.59375,0.125 -1.0625,0.125 -0.76563,0 -1.1875,-0.23438 -0.42188,-0.25 -0.59375,-0.64062 -0.17188,-0.40625 -0.17188,-1.67188 l 0,-4.76562 -1.03125,0 0,-1.09375 1.03125,0 0,-2.0625 1.40625,-0.84375 0,2.90625 1.40625,0 0,1.09375 -1.40625,0 0,4.84375 q 0,0.60937 0.0625,0.78125 0.0781,0.17187 0.25,0.28125 0.17188,0.0937 0.48438,0.0937 0.23437,0 0.60937,-0.0625 z"
       id="path101"
       inkscape:connector-curvature="0"
       style="fill:#000000;fill-rule:nonzero" />
    <path
       d="M 613.6657,134.74803 959.61846,249.51968"
       id="path103"
       inkscape:connector-curvature="0"
       style="fill:#000000;fill-opacity:0;fill-rule:nonzero" />
    <path
       d="M 613.6657,134.74803 959.61846,249.51968"
       id="path105"
       inkscape:connector-curvature="0"
       style="fill-rule:nonzero;stroke:#000000;stroke-width:2;stroke-linecap:butt;stroke-linejoin:round" />
    <path
       d="m 96.80315,249.52692 125.60629,0 0,76.56692 -125.60629,0 z"
       id="path107"
       inkscape:connector-curvature="0"
       style="fill:#cccccc;fill-rule:nonzero" />
    <path
       d="m 96.80315,249.52692 125.60629,0 0,76.56692 -125.60629,0 z"
       id="path109"
       inkscape:connector-curvature="0"
       style="fill-rule:nonzero;stroke:#000000;stroke-width:2;stroke-linecap:butt;stroke-linejoin:round" />
    <path
       d="m 123.3016,296.85788 0,-11.48437 1.28125,0 0,1.07812 q 0.45313,-0.64062 1.01563,-0.95312 0.57812,-0.3125 1.39062,-0.3125 1.0625,0 1.875,0.54687 0.8125,0.54688 1.21875,1.54688 0.42188,0.98437 0.42188,2.17187 0,1.28125 -0.46875,2.29688 -0.45313,1.01562 -1.32813,1.5625 -0.85937,0.54687 -1.82812,0.54687 -0.70313,0 -1.26563,-0.29687 -0.54687,-0.29688 -0.90625,-0.75 l 0,4.04687 -1.40625,0 z m 1.26563,-7.29687 q 0,1.60937 0.64062,2.375 0.65625,0.76562 1.57813,0.76562 0.9375,0 1.60937,-0.79687 0.67188,-0.79688 0.67188,-2.45313 0,-1.59375 -0.65625,-2.375 -0.65625,-0.79687 -1.5625,-0.79687 -0.89063,0 -1.59375,0.84375 -0.6875,0.84375 -0.6875,2.4375 z m 7.36719,4.79687 1.375,0.20313 q 0.0781,0.64062 0.46875,0.92187 0.53125,0.39063 1.4375,0.39063 0.96875,0 1.5,-0.39063 0.53125,-0.39062 0.71875,-1.09375 0.10937,-0.42187 0.10937,-1.8125 -0.92187,1.09375 -2.29687,1.09375 -1.71875,0 -2.65625,-1.23437 -0.9375,-1.23438 -0.9375,-2.96875 0,-1.1875 0.42187,-2.1875 0.4375,-1 1.25,-1.54688 0.82813,-0.54687 1.92188,-0.54687 1.46875,0 2.42187,1.1875 l 0,-1 1.29688,0 0,7.17187 q 0,1.9375 -0.39063,2.75 -0.39062,0.8125 -1.25,1.28125 -0.85937,0.46875 -2.10937,0.46875 -1.48438,0 -2.40625,-0.67187 -0.90625,-0.67188 -0.875,-2.01563 z m 1.17187,-4.98437 q 0,1.625 0.64063,2.375 0.65625,0.75 1.625,0.75 0.96875,0 1.625,-0.73438 0.65625,-0.75 0.65625,-2.34375 0,-1.53125 -0.67188,-2.29687 -0.67187,-0.78125 -1.625,-0.78125 -0.9375,0 -1.59375,0.76562 -0.65625,0.76563 -0.65625,2.26563 z m 6.67969,7.48437 0,-1.01562 9.32812,0 0,1.01562 -9.32812,0 z m 15.58594,-3.1875 0,-1.04687 q -0.78125,1.23437 -2.3125,1.23437 -1,0 -1.82813,-0.54687 -0.82812,-0.54688 -1.29687,-1.53125 -0.45313,-0.98438 -0.45313,-2.25 0,-1.25 0.40625,-2.25 0.42188,-1.01563 1.25,-1.54688 0.82813,-0.54687 1.85938,-0.54687 0.75,0 1.32812,0.3125 0.59375,0.3125 0.95313,0.82812 l 0,-4.10937 1.40625,0 0,11.45312 -1.3125,0 z m -4.4375,-4.14062 q 0,1.59375 0.67187,2.39062 0.67188,0.78125 1.57813,0.78125 0.92187,0 1.5625,-0.75 0.65625,-0.76562 0.65625,-2.3125 0,-1.70312 -0.65625,-2.5 -0.65625,-0.79687 -1.625,-0.79687 -0.9375,0 -1.5625,0.76562 -0.625,0.76563 -0.625,2.42188 z m 13.63281,1.46875 1.45312,0.17187 q -0.34375,1.28125 -1.28125,1.98438 -0.92187,0.70312 -2.35937,0.70312 -1.82813,0 -2.89063,-1.125 -1.0625,-1.125 -1.0625,-3.14062 0,-2.09375 1.07813,-3.25 1.07812,-1.15625 2.79687,-1.15625 1.65625,0 2.70313,1.14062 1.0625,1.125 1.0625,3.17188 0,0.125 0,0.375 l -6.1875,0 q 0.0781,1.375 0.76562,2.10937 0.70313,0.71875 1.73438,0.71875 0.78125,0 1.32812,-0.40625 0.54688,-0.40625 0.85938,-1.29687 z m -4.60938,-2.28125 4.625,0 q -0.0937,-1.04688 -0.53125,-1.5625 -0.67187,-0.8125 -1.73437,-0.8125 -0.96875,0 -1.64063,0.65625 -0.65625,0.64062 -0.71875,1.71875 z m 8.16407,4.95312 0,-7.20312 -1.23438,0 0,-1.09375 1.23438,0 0,-0.89063 q 0,-0.82812 0.15625,-1.23437 0.20312,-0.54688 0.70312,-0.89063 0.51563,-0.34375 1.4375,-0.34375 0.59375,0 1.3125,0.14063 l -0.20312,1.23437 q -0.4375,-0.0781 -0.82813,-0.0781 -0.64062,0 -0.90625,0.28125 -0.26562,0.26562 -0.26562,1.01562 l 0,0.76563 1.60937,0 0,1.09375 -1.60937,0 0,7.20312 -1.40625,0 z m 9.52343,-1.03125 q -0.78125,0.67188 -1.5,0.95313 -0.71875,0.26562 -1.54687,0.26562 -1.375,0 -2.10938,-0.67187 -0.73437,-0.67188 -0.73437,-1.70313 0,-0.60937 0.28125,-1.10937 0.28125,-0.51563 0.71875,-0.8125 0.45312,-0.3125 1.01562,-0.46875 0.42188,-0.10938 1.25,-0.20313 1.70313,-0.20312 2.51563,-0.48437 0,-0.29688 0,-0.375 0,-0.85938 -0.39063,-1.20313 -0.54687,-0.48437 -1.60937,-0.48437 -0.98438,0 -1.46875,0.35937 -0.46875,0.34375 -0.6875,1.21875 l -1.375,-0.1875 q 0.1875,-0.875 0.60937,-1.42187 0.4375,-0.54688 1.25,-0.82813 0.8125,-0.29687 1.875,-0.29687 1.0625,0 1.71875,0.25 0.67188,0.25 0.98438,0.625 0.3125,0.375 0.4375,0.95312 0.0781,0.35938 0.0781,1.29688 l 0,1.875 q 0,1.96875 0.0781,2.48437 0.0937,0.51563 0.35937,1 l -1.46875,0 q -0.21875,-0.4375 -0.28125,-1.03125 z m -0.10937,-3.14062 q -0.76563,0.3125 -2.29688,0.53125 -0.875,0.125 -1.23437,0.28125 -0.35938,0.15625 -0.5625,0.46875 -0.1875,0.29687 -0.1875,0.65625 0,0.5625 0.42187,0.9375 0.4375,0.375 1.25,0.375 0.8125,0 1.4375,-0.34375 0.64063,-0.35938 0.9375,-0.98438 0.23438,-0.46875 0.23438,-1.40625 l 0,-0.51562 z m 9.03906,4.17187 0,-1.21875 q -0.96875,1.40625 -2.64062,1.40625 -0.73438,0 -1.375,-0.28125 -0.625,-0.28125 -0.9375,-0.70312 -0.3125,-0.4375 -0.4375,-1.04688 -0.0781,-0.42187 -0.0781,-1.3125 l 0,-5.14062 1.40625,0 0,4.59375 q 0,1.10937 0.0781,1.48437 0.14062,0.5625 0.5625,0.875 0.4375,0.3125 1.0625,0.3125 0.64062,0 1.1875,-0.3125 0.5625,-0.32812 0.78125,-0.89062 0.23437,-0.5625 0.23437,-1.625 l 0,-4.4375 1.40625,0 0,8.29687 -1.25,0 z m 3.42969,0 0,-11.45312 1.40625,0 0,11.45312 -1.40625,0 z m 6.64844,-1.26562 0.20312,1.25 q -0.59375,0.125 -1.0625,0.125 -0.76562,0 -1.1875,-0.23438 -0.42187,-0.25 -0.59375,-0.64062 -0.17187,-0.40625 -0.17187,-1.67188 l 0,-4.76562 -1.03125,0 0,-1.09375 1.03125,0 0,-2.0625 1.40625,-0.84375 0,2.90625 1.40625,0 0,1.09375 -1.40625,0 0,4.84375 q 0,0.60937 0.0625,0.78125 0.0781,0.17187 0.25,0.28125 0.17187,0.0937 0.48437,0.0937 0.23438,0 0.60938,-0.0625 z"
       id="path111"
       inkscape:connector-curvature="0"
       style="fill:#000000;fill-rule:nonzero" />
    <path
       d="M 613.6657,134.74803 159.61846,249.51968"
       id="path113"
       inkscape:connector-curvature="0"
       style="fill:#000000;fill-opacity:0;fill-rule:nonzero" />
    <path
       d="M 613.6657,134.74803 159.61846,249.51968"
       id="path115"
       inkscape:connector-curvature="0"
       style="fill-rule:nonzero;stroke:#000000;stroke-width:2;stroke-linecap:butt;stroke-linejoin:round" />
  </g>
</svg>
